<svg width="32" height="32" viewBox="0 0 32 32" fill="none" xmlns="http://www.w3.org/2000/svg">
<path d="M14.1109 6.43478C14.7335 4.64366 17.2665 4.64366 17.8891 6.43478L19.0698 9.83133C19.3444 10.6215 20.0818 11.1572 20.9181 11.1743L24.5133 11.2475C26.4091 11.2862 27.1919 13.6952 25.6808 14.8408L22.8154 17.0133C22.1488 17.5187 21.8671 18.3855 22.1093 19.1862L23.1506 22.628C23.6997 24.443 21.6504 25.9319 20.094 24.8488L17.1424 22.7949C16.4557 22.3171 15.5443 22.3171 14.8576 22.7949L11.906 24.8488C10.3496 25.9319 8.30026 24.443 8.84937 22.628L9.89065 19.1862C10.1329 18.3855 9.85123 17.5187 9.18463 17.0133L6.31916 14.8408C4.80809 13.6952 5.59086 11.2862 7.4867 11.2475L11.0819 11.1743C11.9182 11.1572 12.6556 10.6215 12.9302 9.83133L14.1109 6.43478Z" fill="white"/>
</svg>
