<svg width="32" height="32" viewBox="0 0 32 32" fill="none" xmlns="http://www.w3.org/2000/svg">
<path fill-rule="evenodd" clip-rule="evenodd" d="M25 18C25 18.5523 24.5523 19 24 19L15.0223 19C14.6062 19 14.3722 19.4785 14.6276 19.807L16.8752 22.6967C17.2185 23.138 17.1332 23.7751 16.6858 24.1106L14.2862 25.9103C13.8498 26.2376 13.2316 26.1548 12.8968 25.7242L6.46567 17.453C5.84478 16.5837 5.84478 15.416 6.46567 14.5468L12.8968 6.27582C13.2316 5.84518 13.8498 5.76235 14.2862 6.08965L16.6858 7.88938C17.1332 8.22487 17.2185 8.86196 16.8752 9.30332L14.6276 12.193C14.3722 12.5215 14.6062 13 15.0223 13L24 13C24.5523 13 25 13.4477 25 14L25 18Z" fill="white"/>
</svg>
