<svg width="32" height="32" viewBox="0 0 32 32" fill="none" xmlns="http://www.w3.org/2000/svg">
<path fill-rule="evenodd" clip-rule="evenodd" d="M4 16C4 9.37258 9.37258 4 16 4L15.9992 6.77895C15.8002 6.77908 15.5062 6.86418 15.122 7.22983C14.7303 7.60257 14.3143 8.20761 13.9348 9.06154C13.3062 10.4759 12.8522 12.4051 12.7159 14.6105H15.997L15.9992 6.77895L15.9999 14.6105H19.2834C19.1471 12.4051 18.6931 10.4759 18.0645 9.06154C17.685 8.20761 17.2691 7.60257 16.8774 7.22983C16.4931 6.86408 16.1982 6.77903 15.9992 6.77895L16 4C22.6274 4 28 9.37258 28 16C28 22.6274 22.6274 28 16 28L15.9997 25.2211C16.1987 25.221 16.4929 25.1361 16.8774 24.7702C17.2691 24.3974 17.685 23.7924 18.0645 22.9385C18.6931 21.5241 19.1471 19.5949 19.2834 17.3895H15.9998L15.9997 25.2211C15.9997 25.2211 15.9997 25.2211 15.9997 25.2211C15.9978 25.2211 15.9959 25.221 15.994 25.221L15.9962 17.3895H12.7159C12.8522 19.5949 13.3062 21.5241 13.9348 22.9385C14.3143 23.7924 14.7303 24.3974 15.122 24.7702C15.5028 25.1326 15.7951 25.2194 15.994 25.221L15.9932 28C9.36891 27.9963 4 22.6252 4 16ZM9.93228 14.6105C10.0691 12.1169 10.5714 9.83065 11.3504 8.03527C8.99601 9.41268 7.30707 11.8042 6.88295 14.6105H9.93228ZM6.88295 17.3895H9.93228C10.0691 19.8831 10.5714 22.1694 11.3504 23.9647C8.99601 22.5873 7.30707 20.1958 6.88295 17.3895ZM22.0671 17.3895C21.9302 19.8833 21.4278 22.1698 20.6487 23.9652C23.0036 22.5879 24.6929 20.1961 25.1171 17.3895H22.0671ZM25.1171 14.6105C24.6929 11.8039 23.0036 9.41208 20.6487 8.03475C21.4278 9.83021 21.9302 12.1167 22.0671 14.6105H25.1171Z" fill="white"/>
</svg>
