<svg width="32" height="32" viewBox="0 0 32 32" fill="none" xmlns="http://www.w3.org/2000/svg">
<path fill-rule="evenodd" clip-rule="evenodd" d="M19 7.66667C19 7.29848 18.7015 7 18.3333 7H13.6667C13.2985 7 13 7.29848 13 7.66667V12.3333C13 12.7015 12.7015 13 12.3333 13H7.66667C7.29848 13 7 13.2985 7 13.6667V18.3333C7 18.7015 7.29848 19 7.66667 19H12.3333C12.7015 19 13 19.2985 13 19.6667V24.3333C13 24.7015 13.2985 25 13.6667 25H18.3333C18.7015 25 19 24.7015 19 24.3333V19.6667C19 19.2985 19.2985 19 19.6667 19H24.3333C24.7015 19 25 18.7015 25 18.3333V13.6667C25 13.2985 24.7015 13 24.3333 13H19.6667C19.2985 13 19 12.7015 19 12.3333V7.66667Z" fill="white"/>
</svg>
