<svg width="32" height="32" viewBox="0 0 32 32" fill="none" xmlns="http://www.w3.org/2000/svg">
<path fill-rule="evenodd" clip-rule="evenodd" d="M6 14C6 13.4477 6.44772 13 7 13L15.9777 13C16.3938 13 16.6278 12.5215 16.3724 12.193L14.1248 9.30332C13.7815 8.86196 13.8668 8.22487 14.3142 7.88938L16.7138 6.08966C17.1502 5.76235 17.7684 5.84519 18.1032 6.27584L24.5343 14.547C25.1552 15.4163 25.1552 16.584 24.5343 17.4532L18.1032 25.7242C17.7684 26.1548 17.1502 26.2377 16.7138 25.9104L14.3142 24.1106C13.8668 23.7751 13.7815 23.138 14.1248 22.6967L16.3724 19.807C16.6278 19.4785 16.3938 19 15.9777 19L7 19C6.44772 19 6 18.5523 6 18L6 14Z" fill="white"/>
</svg>
