<svg width="32" height="32" viewBox="0 0 32 32" fill="none" xmlns="http://www.w3.org/2000/svg">
<path fill-rule="evenodd" clip-rule="evenodd" d="M18 7C18.5523 7 19 7.44771 19 8V16.9777C19 17.3938 19.4785 17.6278 19.807 17.3724L22.6967 15.1248C23.138 14.7815 23.7751 14.8668 24.1106 15.3142L25.9103 17.7138C26.2376 18.1502 26.1548 18.7684 25.7242 19.1032L17.453 25.5343C16.5837 26.1552 15.416 26.1552 14.5468 25.5343L6.27582 19.1032C5.84518 18.7684 5.76235 18.1502 6.08965 17.7138L7.88938 15.3142C8.22487 14.8668 8.86196 14.7815 9.30332 15.1248L12.193 17.3724C12.5215 17.6278 13 17.3938 13 16.9777V8C13 7.44772 13.4477 7 14 7H18Z" fill="white"/>
</svg>
