<svg width="32" height="32" viewBox="0 0 32 32" fill="none" xmlns="http://www.w3.org/2000/svg">
<path d="M13.5603 6.49441C13.5603 8.8703 13.5603 13.5504 10.7043 13.5504C10.5987 13.5504 10.5196 13.6471 10.5405 13.7507L12.2579 22.2457C12.4022 22.9597 12.9903 23.4993 13.714 23.582L21.5919 24.4814C22.4302 24.5771 23.247 24.1741 23.6811 23.4506C23.8697 23.1362 23.9218 22.7585 23.8254 22.4048L23.5984 21.5725L24.2823 21.0554C24.8934 20.5933 25.1145 19.7764 24.8198 19.0692L24.4804 18.2545L25.2389 17.6476C26.1172 16.945 26.0705 15.5947 25.1457 14.9545L24.8164 14.7265L25.2224 13.982C25.5793 13.3277 25.4625 12.5166 24.9355 11.9896L24.8044 11.8585C24.4894 11.5434 24.0621 11.3664 23.6165 11.3664L18.6003 11.3664C17.1158 11.3664 17.0727 10.6769 17.4754 9.24799C17.5487 8.98805 17.5923 8.68909 17.5923 8.34239C17.5923 5.65438 13.5603 5.6544 13.5603 6.49441Z" fill="white"/>
<path d="M6 14.2874C6 13.5451 6.60173 12.9434 7.34401 12.9434H7.87832C8.52786 12.9434 9.08446 13.4079 9.20065 14.0469L10.7119 22.3589C10.8619 23.1839 10.2281 23.9434 9.38959 23.9434H7.34401C6.60173 23.9434 6 23.3416 6 22.5994V14.2874Z" fill="white"/>
</svg>
