<svg width="32" height="32" viewBox="0 0 32 32" fill="none" xmlns="http://www.w3.org/2000/svg">
<path d="M14.541 20.125C13.8525 19.3895 13.459 18.3983 13.459 17.2791C13.459 13.5058 18.2787 13.0581 18.2787 10.8517C18.2787 9.86047 17.4918 9.02907 15.6885 9.02907C14.0492 9.02907 12.6721 9.79651 11.6557 11.0116L9 8.10174C10.7377 6.08721 13.3607 5 16.1803 5C20.4098 5 23 7.07849 23 10.0523C23 14.7209 17.5246 15.0727 17.5246 17.7587C17.5246 18.2703 17.7869 18.814 18.1475 19.1017L14.541 20.125ZM16.1148 27C14.6721 27 13.459 25.8169 13.459 24.4099C13.459 23.0029 14.6721 21.8198 16.1148 21.8198C17.5574 21.8198 18.7705 23.0029 18.7705 24.4099C18.7705 25.8169 17.5574 27 16.1148 27Z" fill="white"/>
</svg>
