<svg width="32" height="32" viewBox="0 0 32 32" fill="none" xmlns="http://www.w3.org/2000/svg">
<path d="M17.9233 12.2656L13.3479 13.0054C13.2078 14.1127 13.0064 15.2327 12.8018 16.3704C12.4068 18.5661 12 20.8277 12 23.191C12 25.5375 13.4033 26.8182 15.6226 26.8182C18.1572 26.8182 18.5909 25.2273 18.6893 23.7861C16.5881 24.0909 16.1265 23.1425 16.4699 20.9104C16.8133 18.6783 17.9233 12.2656 17.9233 12.2656Z" fill="white"/>
<path d="M13.8513 7.88555C13.8513 6.49756 14.9836 5 16.8464 5C17.9422 5 19.2206 5.65747 19.2206 7.26461C19.2206 8.54302 18.344 10.1136 16.262 10.1136C15.1297 10.1136 13.8513 9.56575 13.8513 7.88555Z" fill="white"/>
</svg>
