<svg width="32" height="32" viewBox="0 0 32 32" fill="none" xmlns="http://www.w3.org/2000/svg">
<path fill-rule="evenodd" clip-rule="evenodd" d="M14.0676 7.37958C14.5772 6.86622 15.2853 6.59823 15.9976 6.59998C16.71 6.60174 17.4168 6.87323 17.9236 7.38961C18.7531 8.23477 19.4724 8.67368 20.1944 8.89753C20.9191 9.12227 21.7972 9.1766 23.0338 9.01926C23.7369 8.92979 24.4669 9.10672 25.0389 9.53642C25.616 9.97002 25.992 10.6368 25.9983 11.3839C26.0384 16.0842 25.3537 19.1667 23.8584 21.4028C22.2783 23.7656 19.7435 25.0464 17.5666 26.1463C17.4632 26.1985 17.3597 26.2508 17.258 26.3024C16.4754 26.6992 15.5246 26.6992 14.742 26.3024C14.6397 26.2505 14.5365 26.1984 14.4325 26.1458C12.2557 25.046 9.72164 23.7656 8.14162 21.4028C6.64631 19.1667 5.96162 16.0844 6.00166 11.3842C6.00801 10.6377 6.38338 9.97137 6.9598 9.53773C7.53105 9.10799 8.26027 8.93057 8.96296 9.01916C10.2065 9.17592 11.0871 9.11206 11.8121 8.88038C12.5329 8.65004 13.2459 8.20732 14.0676 7.37958ZM16.5 11.1C17.0523 11.1 17.5 11.5477 17.5 12.1V14.1C17.5 14.6523 17.9477 15.1 18.5 15.1H20.5C21.0523 15.1 21.5 15.5477 21.5 16.1V17.1C21.5 17.6523 21.0523 18.1 20.5 18.1H18.5C17.9477 18.1 17.5 18.5477 17.5 19.1V21.1C17.5 21.6523 17.0523 22.1 16.5 22.1H15.5C14.9477 22.1 14.5 21.6523 14.5 21.1V19.1C14.5 18.5477 14.0523 18.1 13.5 18.1H11.5C10.9477 18.1 10.5 17.6523 10.5 17.1V16.1C10.5 15.5477 10.9477 15.1 11.5 15.1H13.5C14.0523 15.1 14.5 14.6523 14.5 14.1V12.1C14.5 11.5477 14.9477 11.1 15.5 11.1H16.5Z" fill="white"/>
</svg>
