<svg width="32" height="32" viewBox="0 0 32 32" fill="none" xmlns="http://www.w3.org/2000/svg">
<path fill-rule="evenodd" clip-rule="evenodd" d="M13.5 25.5C12.9477 25.5 12.5 25.0523 12.5 24.5L12.5 15.5223C12.5 15.1062 12.0215 14.8722 11.693 15.1276L8.80332 17.3752C8.36196 17.7185 7.72487 17.6332 7.38938 17.1858L5.58966 14.7862C5.26235 14.3498 5.34519 13.7316 5.77584 13.3968L14.047 6.96566C14.9163 6.34478 16.084 6.34478 16.9532 6.96567L25.2242 13.3968C25.6548 13.7316 25.7377 14.3498 25.4104 14.7862L23.6106 17.1858C23.2751 17.6332 22.638 17.7185 22.1967 17.3752L19.307 15.1276C18.9785 14.8722 18.5 15.1062 18.5 15.5223L18.5 24.5C18.5 25.0523 18.0523 25.5 17.5 25.5L13.5 25.5Z" fill="white"/>
</svg>
