<svg width="32" height="32" viewBox="0 0 32 32" fill="none" xmlns="http://www.w3.org/2000/svg">
<path d="M25.1826 14.3353C25.5519 14.2394 25.9149 14.5028 25.9531 14.8871C26.1505 16.9624 25.7297 19.1148 24.6025 21.0492C21.8321 25.8084 15.8521 27.4864 11.0693 24.9242C10.8528 24.809 10.5858 24.8799 10.4648 25.0912L9.64258 26.5062C9.43878 26.8521 8.92319 26.7817 8.82129 26.391L7.39453 20.8695C7.33094 20.6326 7.47104 20.3829 7.71289 20.3187L13.1836 18.8773C13.5721 18.7748 13.8903 19.1974 13.6865 19.5433L12.8467 20.9847C12.7193 21.2089 12.7951 21.5042 13.0244 21.6195C15.9859 23.0928 19.6165 22.0224 21.3105 19.1078L21.3164 19.1019C21.8768 18.1411 22.1508 17.0967 22.1826 16.059C22.1954 15.5081 22.5457 15.0339 23.0742 14.8929L25.1826 14.3353ZM21.752 5.57263C21.9483 5.22735 22.4447 5.29761 22.543 5.68787L23.916 11.2103C23.9772 11.4473 23.8424 11.6971 23.6094 11.7611L18.3418 13.2025C17.9677 13.305 17.6612 12.8814 17.8574 12.5355L18.667 11.0951C18.7896 10.8709 18.7159 10.5756 18.4951 10.4603C15.6434 8.98704 12.1479 10.0575 10.5166 12.972L10.5098 12.9779C9.97011 13.9387 9.70644 14.9832 9.67578 16.0209C9.66344 16.5717 9.32635 17.046 8.81738 17.1869L6.78711 17.7435C6.43149 17.8394 6.08171 17.577 6.04492 17.1927C5.85485 15.1174 6.26023 12.9651 7.3457 11.0306C10.0135 6.27127 15.7722 4.59338 20.3779 7.15564C20.5864 7.27074 20.8445 7.19995 20.9609 6.98865L21.752 5.57263Z" fill="white"/>
</svg>
