<svg width="32" height="32" viewBox="0 0 32 32" fill="none" xmlns="http://www.w3.org/2000/svg">
<path d="M23.5945 13.3285C23.0284 12.7591 22.355 12.3077 21.6132 12.0004C20.7863 11.6578 19.9233 11.5382 19.0349 11.5382C18.1485 11.5378 17.2985 11.1855 16.6717 10.5588C16.0449 9.93201 15.6927 9.08205 15.6923 8.19568C15.6923 8.17468 15.6923 8.15361 15.6923 8.13249C15.6929 7.33373 15.6936 6.45991 14.8375 6.10534C14.3315 5.89579 13.716 6.01819 13.3287 6.40536L6.40537 13.3285C6.01819 13.7158 5.89579 14.3313 6.10534 14.8373C6.46099 15.6959 7.30959 15.694 8.09014 15.6922C8.12549 15.6921 8.16071 15.6921 8.19573 15.6921C9.08213 15.6924 9.93211 16.0447 10.5589 16.6714C11.1857 17.2982 11.5379 18.1482 11.5383 19.0345C11.5383 19.947 11.614 20.8148 11.974 21.6673C12.294 22.4251 12.7774 23.1029 13.3896 23.6523C13.9306 24.131 14.7759 24.105 15.2866 23.5941L18.3797 20.501L22.4393 24.5607C23.0251 25.1464 23.9749 25.1464 24.5607 24.5607C25.1464 23.9749 25.1464 23.0251 24.5607 22.4393L20.5011 18.3798L23.5945 15.2864C24.1276 14.7531 24.1276 13.8617 23.5945 13.3285Z" fill="white"/>
</svg>
