<svg width="32" height="32" viewBox="0 0 32 32" fill="none" xmlns="http://www.w3.org/2000/svg">
<path d="M13.8365 25.7776C11.3344 24.9773 9.2605 23.0227 8.18721 20.0453C6.59085 15.8004 9.8796 12.4229 9.8796 12.4229C9.8796 12.4229 9.78476 13.2891 10.1896 14.2449C10.5945 15.1996 11.3811 15.8889 11.3811 15.8889C11.3811 15.8889 10.6188 13.8889 12.4775 10.5556C14.5748 6.80044 19.1982 6 19.1982 6C19.1982 6 18.0301 7.80044 18.5532 9.644C18.9592 11.0227 19.6255 11.6893 20.3647 13.5556C21.1039 15.4671 20.9847 16.5113 20.9847 16.5113C20.9847 16.5113 21.1997 15.3342 21.7237 14.534C22.8678 12.7778 24.4167 12.356 24.4167 12.356C24.4167 12.356 23.6067 13.9558 23.7976 16.1111C23.9401 17.6893 24.1784 19.5113 23.297 21.5556C22.6052 23.178 20.6039 25.4002 17.7918 26C19.4125 25.3333 20.4848 23.7776 20.3656 22.0893C20.2939 21.1118 19.6748 20.1778 19.0076 19.5338C18.6025 21.9998 17.1486 22.2889 17.1486 22.2889C17.1486 22.2889 17.9827 20.6673 18.1018 18.8671C18.1736 18.1562 18.1259 17.4 17.8876 16.6449C17.1253 14.0893 15.8146 13.4 15.8146 13.4C15.8146 13.4 16.2438 14.8887 14.6706 17.2889C13.5739 18.9556 11.7152 20.1778 11.7867 22.6664C11.8353 23.9998 12.6694 25.1336 13.8365 25.7776Z" fill="white"/>
</svg>
