<svg width="64" height="64" viewBox="0 0 64 64" fill="none" xmlns="http://www.w3.org/2000/svg">
<path d="M62.6618 16.9964C61.9243 14.241 59.7588 12.0757 57.0035 11.3382C52.0145 10 31.9999 10 31.9999 10C31.9999 10 11.9855 10 6.99636 11.3382C4.24103 12.0757 2.07573 14.241 1.33816 16.9964C4.76837e-07 21.9855 0 32.401 0 32.401C0 32.401 4.76837e-07 42.8166 1.33816 47.8058C2.07573 50.5611 4.24103 52.7264 6.99636 53.4638C11.9855 54.8021 31.9999 54.8021 31.9999 54.8021C31.9999 54.8021 52.0145 54.8021 57.0035 53.4638C59.7588 52.7264 61.9243 50.5611 62.6618 47.8058C64 42.8166 64 32.401 64 32.401C64 32.401 63.9946 21.9855 62.6618 16.9964Z" fill="#FF0000"/>
<path d="M25.5938 42.0008L42.2207 32.402L25.5938 22.803V42.0008Z" fill="white"/>
</svg>
