<svg width="64" height="64" viewBox="0 0 64 64" fill="none" xmlns="http://www.w3.org/2000/svg">
<path d="M36.5 4.5C39.5376 4.5 42 6.96243 42 10V21.5H22V10C22 6.96243 24.4624 4.5 27.5 4.5H36.5Z" stroke="#888888" stroke-width="5"/>
<path d="M14 12H56C60.4183 12 64 15.5817 64 20V51C64 55.4183 60.4183 59 56 59H14C9.58172 59 6 55.4183 6 51V20C6 15.5817 9.58172 12 14 12Z" fill="#C18010"/>
<path d="M8 12H50C54.4183 12 58 15.5817 58 20V51C58 55.4183 54.4183 59 50 59H8C3.58172 59 -3.8147e-06 55.4183 -3.8147e-06 51V20C-3.8147e-06 15.5817 3.58172 12 8 12Z" fill="#E2A412"/>
<path d="M35.9913 29.5614C36.8195 28.1266 36.3274 26.2915 34.8926 25.4631L21.9023 17.9639C19.0327 16.3071 15.3633 17.2897 13.7064 20.1591L11.2059 24.4895C9.54911 27.3592 10.5329 31.0285 13.4025 32.6854L26.3928 40.186C27.8277 41.0144 29.6628 40.5222 30.4912 39.0874L35.9913 29.5614ZM16.8207 22.7431C17.6016 23.524 17.6014 24.7905 16.8207 25.5715C16.0396 26.3526 14.7733 26.3526 13.9922 25.5715C13.2113 24.7905 13.2112 23.5241 13.9922 22.7431C14.7733 21.9624 16.0397 21.9623 16.8207 22.7431Z" fill="#FFE8A3"/>
<rect x="10" y="12" width="5" height="47" fill="#F9BE1A"/>
<rect x="43" y="12" width="5" height="47" fill="#F9BE1A"/>
</svg>
