<svg width="65" height="66" viewBox="0 0 65 66" fill="none" xmlns="http://www.w3.org/2000/svg">
<path d="M47.4404 3.42899C48.2433 0.217704 52.6903 0.117507 53.7207 3.12821L53.8096 3.42899L54.8271 7.50028C55.1872 8.93942 56.3108 10.0632 57.75 10.4231L61.8213 11.4407C65.136 12.2695 65.136 16.9811 61.8213 17.8099L60.3359 18.1809C62.6741 22.6255 64 27.686 64 33.0569C64 50.73 49.6731 65.0569 32 65.0569C14.3269 65.0569 0 50.73 0 33.0569C0.000160272 15.3839 14.327 1.05692 32 1.05692C37.4565 1.05692 42.5935 2.42406 47.0889 4.83231L47.4404 3.42899Z" fill="#DE5833"/>
<path fill-rule="evenodd" clip-rule="evenodd" d="M36.5001 56.8751C36.5001 56.6251 36.5614 56.568 35.7668 54.984C33.6548 50.7547 31.5321 44.792 32.4974 40.9467C32.6734 40.248 30.5081 15.0747 28.9775 14.264C27.2761 13.3574 25.1828 11.9191 23.2682 11.5991C22.2967 11.4437 21.023 11.5173 20.0273 11.6514C19.8503 11.6752 19.843 11.9933 20.0121 12.0506C20.6658 12.2721 21.4596 12.6566 21.9274 13.238C22.0159 13.3481 21.8971 13.5211 21.7559 13.5264C21.315 13.5427 20.515 13.7276 19.4596 14.624C19.3375 14.7277 19.4389 14.9202 19.596 14.8892C21.8643 14.4404 24.1808 14.6615 25.546 15.9024C25.6345 15.9829 25.5882 16.1273 25.4727 16.1587C13.6256 19.3783 15.9709 29.6838 19.1247 42.3306C21.9468 53.6471 23.5643 58.894 23.9492 60.1465C23.9821 60.2535 24.0575 60.3373 24.1619 60.3778C28.2245 61.9544 36.5001 60.2617 36.5001 57.5001V56.8751Z" fill="#DDDDDD"/>
<path fill-rule="evenodd" clip-rule="evenodd" d="M25.1447 58.9928C24.4625 56.4469 22.0644 49.2174 19.8238 40.0326C19.7491 39.7266 19.6746 39.422 19.6004 39.1189L19.5985 39.1113C16.8863 28.0333 14.6711 18.9851 26.812 16.1425C26.923 16.1165 26.9773 15.9838 26.9038 15.8967C25.5108 14.2441 22.9013 13.7025 19.6016 14.8408C19.4662 14.8875 19.3487 14.751 19.4328 14.6352C20.0798 13.7433 21.3443 13.0576 21.9685 12.7569C22.0976 12.6948 22.0897 12.5059 21.9531 12.4631C21.5447 12.3353 20.8495 12.1397 20.0675 12.0135C19.8825 11.9836 19.8658 11.6665 20.0515 11.6415C24.7294 11.0122 29.6143 12.4166 32.0655 15.5044C32.0886 15.5335 32.122 15.5538 32.1583 15.5616C41.1347 17.4893 41.7774 31.6791 40.7434 32.3254C40.5395 32.4528 39.8861 32.3797 39.0243 32.2832C35.5316 31.8925 28.6154 31.1186 34.3236 41.7569C34.3799 41.862 34.3053 42.0011 34.1875 42.0194C30.9796 42.5182 35.0651 52.5366 38.0937 59.1813C39.2645 61.7499 25.917 61.8749 25.1447 58.9928Z" fill="white"/>
<path d="M42.1404 46.3489C41.457 46.0323 38.8295 47.9166 37.0856 49.3631C36.7211 48.8474 36.0339 48.4726 34.4837 48.7421C33.127 48.978 32.378 49.3051 32.0438 49.8691C29.9024 49.0572 26.2998 47.8042 25.4295 49.0143C24.4781 50.3371 25.6672 56.5946 26.9308 57.407C27.5905 57.8312 30.7461 55.8029 32.3939 54.4042C32.6598 54.7788 33.0878 54.9932 33.9678 54.9728C35.2986 54.9419 37.457 54.6322 37.792 54.0125C37.8124 53.9748 37.8299 53.9303 37.8448 53.8796C39.5386 54.5127 42.5195 55.1826 43.1855 55.0826C44.9209 54.8219 42.9437 46.7212 42.1404 46.3489Z" fill="#3CA82B"/>
<path d="M37.2451 49.5481C37.317 49.6763 37.3747 49.8114 37.4238 49.9488C37.6653 50.6241 38.0587 52.7724 37.7612 53.303C37.4637 53.8337 35.5315 54.0899 34.3395 54.1105C33.1476 54.131 32.8793 53.6951 32.6378 53.0198C32.4446 52.4796 32.3495 51.2095 32.3519 50.4823C32.303 49.4035 32.6971 49.0243 34.5189 48.7295C35.867 48.5113 36.5797 48.7651 36.9912 49.1993C38.9051 47.7708 42.0985 45.7549 42.41 46.1233C43.963 47.9604 44.1593 52.3336 43.823 54.0931C43.7131 54.6682 38.5706 53.5231 38.5706 52.9028C38.5706 50.3271 37.9022 49.6204 37.2451 49.5481Z" fill="#4CBA3C"/>
<path d="M25.9802 48.7438C26.4014 48.0772 29.8169 48.9062 31.6918 49.7405C31.6918 49.7405 31.3066 51.4861 31.92 53.5425C32.0994 54.144 27.6065 56.8214 27.02 56.3607C26.3423 55.8284 25.0949 50.1449 25.9802 48.7438Z" fill="#4CBA3C"/>
<path fill-rule="evenodd" clip-rule="evenodd" d="M27.6344 35.2034C27.9108 34.0017 29.1981 31.7373 33.795 31.7923C36.119 31.7826 39.0058 31.7913 40.9197 31.5739C43.7643 31.2508 45.8758 30.5627 47.2828 30.0264C49.2727 29.2672 49.9788 29.4365 50.2264 29.8908C50.4985 30.3899 50.1779 31.2518 49.4826 32.0451C48.1545 33.5606 45.7669 34.7348 41.5502 35.0834C37.3334 35.4319 34.5398 34.3008 33.3373 36.1423C32.8186 36.9366 33.2196 38.8086 37.2975 39.398C42.808 40.1933 47.3336 38.4398 47.8928 39.4988C48.452 40.5579 45.2309 42.7126 39.7115 42.7577C34.1921 42.8028 30.7446 40.8253 29.522 39.8423C27.9709 38.5951 27.2768 36.7762 27.6344 35.2034Z" fill="#FFCC33"/>
<g opacity="0.8">
<path d="M34.6635 22.0634C34.9714 21.5593 35.6541 21.1702 36.7713 21.1702C37.8885 21.1702 38.4141 21.6147 38.778 22.1105C38.852 22.2113 38.7398 22.33 38.625 22.2804C38.5974 22.2684 38.5695 22.2562 38.541 22.2438C38.1325 22.0654 37.6308 21.8462 36.7713 21.834C35.852 21.821 35.2724 22.0512 34.9074 22.2496C34.7844 22.3165 34.5906 22.1829 34.6635 22.0634Z" fill="#14307E"/>
<path d="M22.0854 22.7083C23.1703 22.255 24.0229 22.3136 24.6256 22.4562C24.7525 22.4862 24.8407 22.3496 24.7392 22.2677C24.2714 21.8904 23.2243 21.4219 21.8587 21.9311C20.6406 22.3854 20.0664 23.3291 20.063 23.9497C20.0622 24.0959 20.363 24.1083 20.4409 23.9845C20.6511 23.65 21.0006 23.1617 22.0854 22.7083Z" fill="#14307E"/>
<path fill-rule="evenodd" clip-rule="evenodd" d="M37.7203 28.9597C36.7612 28.9597 35.9832 28.184 35.9832 27.2291C35.9832 26.2743 36.7612 25.4985 37.7203 25.4985C38.6794 25.4985 39.4573 26.2743 39.4573 27.2291C39.4573 28.184 38.6794 28.9597 37.7203 28.9597ZM38.9436 26.6558C38.9436 26.4086 38.7412 26.2082 38.4939 26.2082C38.2467 26.2082 38.0464 26.4086 38.0442 26.6558C38.0442 26.903 38.2467 27.1034 38.4939 27.1034C38.7433 27.1034 38.9436 26.903 38.9436 26.6558Z" fill="#14307E"/>
<path fill-rule="evenodd" clip-rule="evenodd" d="M26.2117 28.4268C26.2117 29.5415 25.3059 30.4452 24.187 30.4452C23.0702 30.4452 22.1623 29.5415 22.1623 28.4268C22.1623 27.3122 23.0702 26.4085 24.187 26.4085C25.3038 26.4085 26.2117 27.3122 26.2117 28.4268ZM25.6149 27.7576C25.6149 27.4699 25.3805 27.2354 25.0906 27.2354C24.8029 27.2354 24.5685 27.4678 24.5663 27.7576C24.5663 28.0453 24.8008 28.2798 25.0906 28.2798C25.3805 28.2798 25.6149 28.0453 25.6149 27.7576Z" fill="#14307E"/>
</g>
<path d="M32 3.49976C37.1966 3.49976 42.0785 4.84496 46.3189 7.20388C46.4036 7.25099 46.4459 7.34901 46.4229 7.44312C46.3456 7.75198 46.2329 8.04609 46.0894 8.3212C45.6924 9.08252 44.7131 9.16072 43.9433 8.78033C40.3425 7.00086 36.2884 5.99976 32 5.99976C17.3215 5.99976 5.37875 17.7131 5.00879 32.3025L5 32.9998C5.00001 47.9114 17.0883 59.9998 32 59.9998C46.9117 59.9998 59 47.9114 59 32.9998C59 28.7973 58.039 24.8194 56.3259 21.2729C55.9621 20.5196 56.0324 19.57 56.7625 19.1617C57.0688 18.9904 57.4001 18.8578 57.75 18.7703C57.7989 18.7576 57.8501 18.7796 57.8744 18.8239C60.1843 23.031 61.5 27.8614 61.5 32.9998C61.5 49.2921 48.2924 62.4998 32 62.4998C15.7076 62.4998 2.50001 49.2921 2.5 32.9998C2.50013 16.7075 15.7077 3.49976 32 3.49976Z" fill="white"/>
<path d="M49.8662 3.97808C50.0637 3.18814 51.1863 3.18814 51.3838 3.97808L52.4015 8.04886C52.9853 10.3841 54.8087 12.2075 57.144 12.7914L61.2148 13.8091C62.0047 14.0066 62.0047 15.1292 61.2148 15.3267L57.144 16.3444C54.8087 16.9282 52.9853 18.7516 52.4015 21.0869L51.3838 25.1577C51.1863 25.9476 50.0637 25.9476 49.8662 25.1577L48.8485 21.0869C48.2647 18.7516 46.4413 16.9282 44.106 16.3444L40.0352 15.3267C39.2453 15.1292 39.2453 14.0066 40.0352 13.8091L44.106 12.7914C46.4413 12.2076 48.2647 10.3841 48.8485 8.04885L49.8662 3.97808Z" fill="white"/>
</svg>
