<svg width="64" height="64" viewBox="0 0 64 64" fill="none" xmlns="http://www.w3.org/2000/svg">
<path d="M0 17C0 9.8203 5.8203 4 13 4H51C58.1797 4 64 9.8203 64 17V47C64 54.1797 58.1797 60 51 60H13C5.8203 60 0 54.1797 0 47V17Z" fill="#FFCC33"/>
<path d="M63.874 48.8186C62.9895 55.1374 57.5627 60 51.0002 60H13.0002C6.43182 60 1.00123 55.1287 0.124023 48.8017L32.0002 28L63.874 48.8186Z" fill="#E2A412"/>
<path d="M63.5423 50.431C62.0372 55.9459 56.9919 60 50.9998 60H12.9998C7.00206 60 1.95295 55.9382 0.453125 50.4153L31.9998 34L63.5423 50.431Z" fill="#F9BE1A"/>
<path d="M13 4C5.8203 4 0 9.8203 0 17V17.3331L26.9963 38.9866C29.9202 41.3318 34.0804 41.3326 37.0051 38.9884L64 17.3518V17C64 9.8203 58.1797 4 51 4H13Z" fill="#E2A412"/>
<path d="M63.9596 15.9664L36.5429 34.8681C33.808 36.7535 30.1926 36.7528 27.4586 34.8663L0.0419922 15.9484C0.577361 9.26047 6.17439 4 13.0001 4H51.0001C57.8319 4 63.4328 9.2699 63.9596 15.9664Z" fill="#FFD65C"/>
</svg>
