<svg width="64" height="64" viewBox="0 0 64 64" fill="none" xmlns="http://www.w3.org/2000/svg">
<path d="M14 33C14 34.6569 15.3431 36 17 36C18.6569 36 20 34.6569 20 33H14ZM45 17H42V38.6716H45H48V17H45ZM31 52.6716V49.6716H29.5V52.6716V55.6716H31V52.6716ZM17 33H20V17H17H14V33H17ZM29.5 52.6716V49.6716C24.2533 49.6716 20 45.4183 20 40.1716H17H14C14 48.732 20.9396 55.6716 29.5 55.6716V52.6716ZM45 38.6716H42C42 44.7468 37.0751 49.6716 31 49.6716V52.6716V55.6716C40.3888 55.6716 48 48.0605 48 38.6716H45ZM31 3V6C37.0751 6 42 10.9249 42 17H45H48C48 7.61116 40.3888 0 31 0V3ZM31 3V0C21.6112 0 14 7.61116 14 17H17H20C20 10.9249 24.9249 6 31 6V3Z" fill="#999999"/>
<path d="M58 31C58 27.134 54.866 24 51 24H33V64H51C54.866 64 58 60.866 58 57V31Z" fill="url(#paint0_linear_391_4724)"/>
<path d="M54 30C54 26.6863 51.3137 24 48 24H30V64H46C50.4183 64 54 60.4183 54 56V30Z" fill="#CCCCCC"/>
<path d="M50 31C50 29.3431 48.6569 28 47 28H30V60H47C48.6569 60 50 58.6569 50 57V31Z" fill="url(#paint1_linear_391_4724)"/>
<path d="M6 30C6 26.6863 8.68629 24 12 24H30V64H14C9.58172 64 6 60.4183 6 56V30Z" fill="#DDDDDD"/>
<path d="M10 31C10 29.3431 11.3431 28 13 28H30V60H13C11.3431 60 10 58.6569 10 57V31Z" fill="url(#paint2_linear_391_4724)"/>
<defs>
<linearGradient id="paint0_linear_391_4724" x1="45.5" y1="24" x2="45.5" y2="64" gradientUnits="userSpaceOnUse">
<stop stop-color="#AAAAAA"/>
<stop offset="1" stop-color="#CCCCCC"/>
</linearGradient>
<linearGradient id="paint1_linear_391_4724" x1="40" y1="60" x2="26.1976" y2="29.2582" gradientUnits="userSpaceOnUse">
<stop stop-color="#E4E4E4"/>
<stop offset="1" stop-color="#F2F2F2"/>
</linearGradient>
<linearGradient id="paint2_linear_391_4724" x1="20" y1="60" x2="20" y2="28" gradientUnits="userSpaceOnUse">
<stop stop-color="#FEFEFE"/>
<stop offset="1" stop-color="#ECECEC"/>
</linearGradient>
</defs>
</svg>
