<svg width="64" height="64" viewBox="0 0 64 64" fill="none" xmlns="http://www.w3.org/2000/svg">
<path d="M3.98193 9.96362C3.98193 6.64992 6.66823 3.96362 9.98193 3.96362H53.9819C57.2956 3.96362 59.9819 6.64991 59.9819 9.96362V53.9636C59.9819 57.2773 57.2956 59.9636 53.9819 59.9636H9.98193C6.66823 59.9636 3.98193 57.2773 3.98193 53.9636V9.96362Z" fill="#F2F2F2"/>
<path d="M4 11.5C4 9.84315 11.3431 3.96362 13 3.96362H52.721C55.3937 3.96362 56.7322 7.19505 54.8423 9.08494L31.9818 31.9454L9.12132 54.8059C7.23143 56.6958 4 55.3573 4 52.6846V11.5Z" fill="white"/>
<path fill-rule="evenodd" clip-rule="evenodd" d="M11.4712 4C7.34497 4 4 7.34497 4 11.4712V52.5288C4 56.655 7.34497 60 11.4712 60H52.5288C56.655 60 60 56.655 60 52.5288V11.4712C60 7.34497 56.655 4 52.5288 4H11.4712ZM10.5172 7.85852C10.8217 7.77832 11.1415 7.7356 11.4712 7.7356H52.5288C52.8587 7.7356 53.1785 7.77835 53.4832 7.85862L32.0002 29.3416L10.5172 7.85852ZM7.86578 10.49L29.3588 31.983L7.85862 53.4832C7.77835 53.1785 7.7356 52.8587 7.7356 52.5288V11.4712C7.7356 11.1317 7.7809 10.8027 7.86578 10.49ZM10.4904 56.1343C10.803 56.2191 11.1318 56.2644 11.4712 56.2644H52.5288C52.8683 56.2644 53.1973 56.2191 53.51 56.1342L32.0002 34.6245L10.4904 56.1343ZM56.1415 53.4828L34.6417 31.983L56.1343 10.4904C56.2191 10.803 56.2644 11.1318 56.2644 11.4712V52.5288C56.2644 52.8585 56.2217 53.1783 56.1415 53.4828Z" fill="#CACACA"/>
</svg>
