<svg width="64" height="60" viewBox="0 0 64 60" fill="none" xmlns="http://www.w3.org/2000/svg">
<path d="M32 60V59.9287C32.6445 59.9745 33.3108 60 34 60C50.5685 60 64 46.5685 64 30C64 13.4315 50.5685 0 34 0C33.3108 0 32.6445 0.0265198 32 0.0722656V0H29V0.474609C16.7188 2.99208 14 15.2527 14 30C14 44.7474 16.7187 57.009 29 59.5264V60H32Z" fill="#666666"/>
<path d="M30 57C44.9117 57 57 44.9117 57 30C57 15.0883 44.9117 3 30 3C15.0883 3 3 15.0883 3 30C3 44.9117 15.0883 57 30 57Z" fill="#FFDE7A"/>
<path d="M56.8721 32.6257C56.9555 31.7617 57 30.8856 57 29.9998C56.9998 15.0883 44.9115 2.99987 30 2.99976C18.2444 2.99976 8.24486 10.5135 4.53809 20.9998H18.0283C22.0635 16.1138 28.1683 12.9998 35 12.9998C46.3479 12.9999 55.688 21.5922 56.8721 32.6257Z" fill="url(#paint0_linear_391_5123)"/>
<path d="M37.4609 38.2645C38.4157 38.8661 39.6735 38.6312 40.3467 37.7254C41.0198 36.8196 40.8817 35.5481 40.0303 34.8074L32.9336 28.6365L32.0947 10.9969C32.0411 9.87891 31.1194 8.99983 30 8.99982C28.8806 8.99982 27.9589 9.87891 27.9053 10.9969L27.0117 29.7361C27.008 29.7783 27.0077 29.8209 27.0059 29.8631L27 29.9998H27.001C27.0016 30.877 27.3841 31.7465 28.1211 32.3387C28.1275 32.3439 28.1341 32.3492 28.1406 32.3543L28.1221 32.3787L37.4609 38.2645Z" fill="#666666"/>
<path d="M30 60C46.5685 60 60 46.5685 60 30C60 13.4315 46.5685 0 30 0C20.1862 7.24792e-05 11.4733 4.71267 6 11.998L6 5C6 3.89543 5.10457 3 4 3H2C0.895431 3 2.01333e-08 3.89543 0 5L0 22C0 23.1046 0.895431 24 2 24H17C18.1046 24 19 23.1046 19 22V20C19 18.8954 18.1046 18 17 18H9.21484C13.3648 10.8274 21.1174 6.00008 30 6C43.2548 6 54 16.7452 54 30C54 43.2548 43.2548 54 30 54C19.0537 53.9999 9.81913 46.6715 6.93457 36.6533C6.62873 35.5911 5.58199 34.8838 4.49805 35.1006L2.53613 35.4932C1.45391 35.7097 0.744869 36.7654 1.03223 37.8311C4.47622 50.6019 16.1408 59.9999 30 60Z" fill="url(#paint1_linear_391_5123)"/>
<defs>
<linearGradient id="paint0_linear_391_5123" x1="4.53809" y1="17.8127" x2="57" y2="17.8127" gradientUnits="userSpaceOnUse">
<stop stop-color="#FFCC33"/>
<stop offset="1" stop-color="#FFDE7A"/>
</linearGradient>
<linearGradient id="paint1_linear_391_5123" x1="30.0001" y1="0" x2="30.0001" y2="60" gradientUnits="userSpaceOnUse">
<stop stop-color="#AAAAAA"/>
<stop offset="1" stop-color="#888888"/>
</linearGradient>
</defs>
</svg>
