<svg width="68" height="64" viewBox="0 0 68 64" fill="none" xmlns="http://www.w3.org/2000/svg">
<path d="M36 35.9775C35.3681 35.7509 34.7046 35.6328 34.0303 35.6328C33.3344 35.6328 32.6501 35.759 32 36V8.99805H36V35.9775Z" fill="#92540C"/>
<path fill-rule="evenodd" clip-rule="evenodd" d="M31.8599 3.08821V17.9282C31.8589 18.2947 32.0584 18.6323 32.3799 18.8082C40.3799 22.9882 48.3799 14.5382 56.4499 17.8082C56.7574 17.9465 57.1138 17.9205 57.398 17.7391C57.6822 17.5577 57.8558 17.2453 57.8599 16.9082V2.06821C57.8609 1.70176 57.6613 1.36411 57.3399 1.18821C49.3399 -2.99179 41.2899 5.45821 33.2699 2.18821C32.9624 2.04996 32.6059 2.07595 32.3218 2.25734C32.0376 2.43873 31.8639 2.7511 31.8599 3.08821Z" fill="#63C853"/>
<path d="M1.10046 59.0794L16.043 41.1484C17.8421 38.9895 21.1579 38.9895 22.957 41.1484L37.8995 59.0794C39.5279 61.0334 38.1384 64 35.5949 64H3.40513C0.861612 64 -0.527857 61.0334 1.10046 59.0794Z" fill="#CCCCCC"/>
<path d="M30.1005 59.0794L45.043 41.1484C46.8421 38.9895 50.1579 38.9895 51.957 41.1484L66.8995 59.0794C68.5279 61.0334 67.1384 64 64.5949 64H32.4051C29.8616 64 28.4721 61.0334 30.1005 59.0794Z" fill="#CCCCCC"/>
<path d="M9.46729 57.4393L29.3907 33.5312C31.7894 30.6527 36.2106 30.6527 38.6093 33.5312L58.5327 57.4393C60.7038 60.0446 58.8512 64 55.4598 64H12.5402C9.14882 64 7.2962 60.0446 9.46729 57.4393Z" fill="#4CBA3C"/>
<path d="M9.46729 57.4393L29.3907 33.5312C31.7894 30.6527 36.2106 30.6527 38.6093 33.5312L58.5327 57.4393C60.7038 60.0446 58.8512 64 55.4598 64H12.5402C9.14882 64 7.2962 60.0446 9.46729 57.4393Z" fill="#4CBA3C"/>
<path d="M55.46 64C58.8511 63.9999 60.7038 60.0447 58.5332 57.4395L49 46L50.1475 48.1309C53.0403 53.5032 49.862 60.137 43.8623 61.248L29 64H55.46Z" fill="#399F29"/>
<path d="M38.6098 33.5317C36.211 30.6532 31.7898 30.6532 29.3911 33.5317L19.7143 45.1431L26.2455 41.8774C27.3115 41.3447 28.5918 41.4934 29.5073 42.2563L32.0795 44.3999C33.192 45.3269 34.8079 45.3268 35.9203 44.3999L38.4926 42.2563C39.4083 41.4933 40.6892 41.3444 41.7553 41.8774L48.2846 45.1431L38.6098 33.5317Z" fill="white"/>
</svg>
