<svg width="76" height="72" viewBox="0 0 76 72" fill="none" xmlns="http://www.w3.org/2000/svg">
<path fill-rule="evenodd" clip-rule="evenodd" d="M38 8H43C43.5523 8 44 7.55228 44 7V5C44 4.44772 43.5523 4 43 4H38V8Z" fill="#E46F4F"/>
<path fill-rule="evenodd" clip-rule="evenodd" d="M36 20H38V4H36V20Z" fill="#666666"/>
<path fill-rule="evenodd" clip-rule="evenodd" d="M62 70H66V32H62V70Z" fill="#AAAAAA"/>
<path fill-rule="evenodd" clip-rule="evenodd" d="M22 68H26V32H22V68Z" fill="#AAAAAA"/>
<path fill-rule="evenodd" clip-rule="evenodd" d="M50 70H62V36H50V70Z" fill="#DDDDDD"/>
<path fill-rule="evenodd" clip-rule="evenodd" d="M50 32H66C67.104 32 68 31.104 68 30V28H48V30C48 31.104 48.896 32 50 32" fill="#DDDDDD"/>
<path fill-rule="evenodd" clip-rule="evenodd" d="M26 48H50V42H26V48Z" fill="#DDDDDD"/>
<path fill-rule="evenodd" clip-rule="evenodd" d="M50 36H66V32H50V36Z" fill="#AAAAAA"/>
<path fill-rule="evenodd" clip-rule="evenodd" d="M16 70H20V30H16V70Z" fill="#AAAAAA"/>
<path fill-rule="evenodd" clip-rule="evenodd" d="M10 68H22V36H10V68Z" fill="#DDDDDD"/>
<path fill-rule="evenodd" clip-rule="evenodd" d="M26 68H46V52H26V68Z" fill="#DDDDDD"/>
<path fill-rule="evenodd" clip-rule="evenodd" d="M64 28H68V24H64V28Z" fill="#DDDDDD"/>
<path fill-rule="evenodd" clip-rule="evenodd" d="M48 28H52V24H48V28Z" fill="#DDDDDD"/>
<path fill-rule="evenodd" clip-rule="evenodd" d="M56 28H60V24H56V28Z" fill="#DDDDDD"/>
<path fill-rule="evenodd" clip-rule="evenodd" d="M10 32H26C27.104 32 28 31.104 28 30V28H8V30C8 31.104 8.896 32 10 32Z" fill="#DDDDDD"/>
<path fill-rule="evenodd" clip-rule="evenodd" d="M24 28H28V24H24V28Z" fill="#DDDDDD"/>
<path fill-rule="evenodd" clip-rule="evenodd" d="M8 28H12V24H8V28Z" fill="#DDDDDD"/>
<path fill-rule="evenodd" clip-rule="evenodd" d="M16 28H20V24H16V28Z" fill="#DDDDDD"/>
<path fill-rule="evenodd" clip-rule="evenodd" d="M58 46H54V42C54 40.896 54.896 40 56 40C57.104 40 58 40.896 58 42V46Z" fill="#666666"/>
<path fill-rule="evenodd" clip-rule="evenodd" d="M41 69H31V60.875C31 58.1832 33.2392 56 36 56C38.7608 56 41 58.1832 41 60.875V69Z" fill="#666666"/>
<path fill-rule="evenodd" clip-rule="evenodd" d="M18 46H14V42C14 40.896 14.896 40 16 40C17.104 40 18 40.896 18 42V46Z" fill="#666666"/>
<path fill-rule="evenodd" clip-rule="evenodd" d="M10 36H22V32H10V36Z" fill="#AAAAAA"/>
<path fill-rule="evenodd" clip-rule="evenodd" d="M42 42H46V20H42V42Z" fill="#AAAAAA"/>
<path fill-rule="evenodd" clip-rule="evenodd" d="M30 42H42V20H30V42Z" fill="#DDDDDD"/>
<path fill-rule="evenodd" clip-rule="evenodd" d="M30 20H46C47.104 20 48 19.104 48 18V16H28V18C28 19.104 28.896 20 30 20" fill="#DDDDDD"/>
<path fill-rule="evenodd" clip-rule="evenodd" d="M44 16H48V12H44V16Z" fill="#DDDDDD"/>
<path fill-rule="evenodd" clip-rule="evenodd" d="M28 16H32V12H28V16Z" fill="#DDDDDD"/>
<path fill-rule="evenodd" clip-rule="evenodd" d="M36 16H40V12H36V16Z" fill="#DDDDDD"/>
<path fill-rule="evenodd" clip-rule="evenodd" d="M38 34H34V30C34 28.896 34.896 28 36 28C37.104 28 38 28.896 38 30V34Z" fill="#666666"/>
<path fill-rule="evenodd" clip-rule="evenodd" d="M30 24H46V20H30V24Z" fill="#AAAAAA"/>
<path fill-rule="evenodd" clip-rule="evenodd" d="M22 52H50V48H22V52Z" fill="#AAAAAA"/>
<path fill-rule="evenodd" clip-rule="evenodd" d="M46 70H50V48H46V70Z" fill="#AAAAAA"/>
<path fill-rule="evenodd" clip-rule="evenodd" d="M70 72H6C6 69.791 7.791 68 10 68H66C68.209 68 70 69.791 70 72Z" fill="#63C853"/>
</svg>
