<svg width="64" height="68" viewBox="0 0 64 68" fill="none" xmlns="http://www.w3.org/2000/svg">
<path d="M16.2971 13.1294C15.8683 14.7298 16.818 16.3748 18.4184 16.8036C20.0188 17.2324 21.6638 16.2827 22.0927 14.6823L16.2971 13.1294ZM46.3702 20.6698L43.4724 19.8933L37.7784 41.1437L40.6762 41.9202L43.574 42.6966L49.268 21.4463L46.3702 20.6698ZM23.5298 51.8197L24.3062 48.9219L22.8573 48.5337L22.0809 51.4314L21.3044 54.3292L22.7533 54.7174L23.5298 51.8197ZM19.1949 13.9058L22.0927 14.6823L22.2221 14.1993L19.3243 13.4229L16.4265 12.6464L16.2971 13.1294L19.1949 13.9058ZM22.0809 51.4314L22.8573 48.5337C17.7894 47.1757 14.7819 41.9665 16.1398 36.8986L13.242 36.1221L10.3443 35.3457C8.12866 43.6144 13.0357 52.1136 21.3044 54.3292L22.0809 51.4314ZM40.6762 41.9202L37.7784 41.1437C36.2061 47.0118 30.1743 50.4942 24.3062 48.9219L23.5298 51.8197L22.7533 54.7174C31.8222 57.1474 41.144 51.7655 43.574 42.6966L40.6762 41.9202ZM36.4707 3.52337L35.6943 6.42115C41.5624 7.99351 45.0448 14.0252 43.4724 19.8933L46.3702 20.6698L49.268 21.4463C51.698 12.3773 46.3161 3.0556 37.2472 0.625592L36.4707 3.52337ZM36.4707 3.52337L37.2472 0.625592C28.1782 -1.80442 18.8565 3.57748 16.4265 12.6464L19.3243 13.4229L22.2221 14.1993C23.7944 8.33119 29.8261 4.84879 35.6943 6.42115L36.4707 3.52337Z" fill="#999999"/>
<path d="M58 35C58 31.134 54.866 28 51 28H33V68H51C54.866 68 58 64.866 58 61V35Z" fill="url(#paint0_linear_391_4731)"/>
<path d="M54 34C54 30.6863 51.3137 28 48 28H30V68H46C50.4183 68 54 64.4183 54 60V34Z" fill="#CCCCCC"/>
<path d="M50 35C50 33.3431 48.6569 32 47 32H30V64H47C48.6569 64 50 62.6569 50 61V35Z" fill="url(#paint1_linear_391_4731)"/>
<path d="M6 34C6 30.6863 8.68629 28 12 28H30V68H14C9.58172 68 6 64.4183 6 60V34Z" fill="#DDDDDD"/>
<path d="M10 35C10 33.3431 11.3431 32 13 32H30V64H13C11.3431 64 10 62.6569 10 61V35Z" fill="url(#paint2_linear_391_4731)"/>
<defs>
<linearGradient id="paint0_linear_391_4731" x1="45.5" y1="28" x2="45.5" y2="68" gradientUnits="userSpaceOnUse">
<stop stop-color="#AAAAAA"/>
<stop offset="1" stop-color="#CCCCCC"/>
</linearGradient>
<linearGradient id="paint1_linear_391_4731" x1="40" y1="64" x2="26.1976" y2="33.2582" gradientUnits="userSpaceOnUse">
<stop stop-color="#E4E4E4"/>
<stop offset="1" stop-color="#F2F2F2"/>
</linearGradient>
<linearGradient id="paint2_linear_391_4731" x1="20" y1="64" x2="20" y2="32" gradientUnits="userSpaceOnUse">
<stop stop-color="#FEFEFE"/>
<stop offset="1" stop-color="#ECECEC"/>
</linearGradient>
</defs>
</svg>
