<svg width="96" height="95" viewBox="0 0 96 95" fill="none" xmlns="http://www.w3.org/2000/svg">
<path d="M33.7217 69.4972C28.5033 71.3665 23.4613 66.3244 25.3305 61.1061L41.5236 15.9004C42.173 14.0873 44.4891 13.5676 45.8509 14.9295L79.8982 48.9768C81.2601 50.3386 80.7404 52.6547 78.9273 53.3042L33.7217 69.4972Z" fill="#FFD65C"/>
<path d="M35.2153 33.5131C37.3257 38.4797 41.1018 43.8895 46.0201 48.8078C50.9387 53.7264 56.3486 57.503 61.3154 59.6132L67.4854 57.4028C62.237 56.5279 55.1877 52.4069 48.8043 46.0235L47.9129 45.1127C42.0381 38.9772 38.2595 32.343 37.4257 27.3432L35.2153 33.5131Z" fill="#876ECB"/>
<path d="M30.5032 46.6681C32.0584 50.072 34.6349 53.6724 37.8954 56.9329C41.1562 60.1938 44.7568 62.7707 48.1609 64.3258L54.5359 62.0415C50.8772 61.902 45.5007 58.9697 40.6796 54.1487L40.0692 53.5258C35.6115 48.87 32.9202 43.7944 32.7868 40.2924L30.5032 46.6681Z" fill="#876ECB"/>
<path d="M26.6958 57.2977C27.8819 59.3806 29.5044 61.479 31.4273 63.402C33.3503 65.3248 35.4482 66.9469 37.531 68.1328L43.0097 66.1703C40.4636 65.5835 37.1915 63.5974 34.2116 60.6177L33.7689 60.1654C31.0341 57.3093 29.2156 54.2353 28.659 51.8169L26.6958 57.2977Z" fill="#876ECB"/>
<g opacity="0.4">
<path d="M37.1683 68.2626C33.2119 69.6798 30.0845 64.7432 33.0562 61.7715L61.0184 33.8093C62.0435 32.7842 63.7056 32.7842 64.7307 33.8093L79.8982 48.9768C81.2601 50.3386 80.7404 52.6547 78.9273 53.3042L37.1683 68.2626Z" fill="#FFCC33" style="mix-blend-mode:multiply"/>
</g>
<path d="M82.3644 51.4428C77.7513 56.0559 65.2858 51.0697 54.522 40.3059C43.7582 29.542 38.772 17.0766 43.3851 12.4635C47.9982 7.85047 60.4636 12.8366 71.2274 23.6005C81.9912 34.3643 86.9774 46.8297 82.3644 51.4428Z" fill="#FFCC33"/>
<path d="M54.5219 40.3055C65.2857 51.0693 77.7512 56.0555 82.3642 51.4424C86.9773 46.8294 81.9911 34.3639 71.2273 23.6001L54.5219 40.3055Z" fill="#FFDE7A"/>
<path d="M69.8353 24.9926C75.0749 30.2322 78.8393 35.8227 80.734 40.5593C81.6827 42.9311 82.1259 44.9974 82.1151 46.647C82.1043 48.2847 81.6547 49.3682 80.9722 50.0507C80.2897 50.7332 79.2063 51.1827 77.5686 51.1935C75.919 51.2044 73.8527 50.7612 71.4808 49.8124C66.7442 47.9178 61.1537 44.1534 55.9141 38.9137C50.6745 33.6741 46.9101 28.0836 45.0154 23.347C44.0667 20.9752 43.6235 18.9089 43.6344 17.2593C43.6452 15.6216 44.0947 14.5382 44.7772 13.8557C45.4597 13.1732 46.5432 12.7236 48.1809 12.7128C49.8305 12.702 51.8967 13.1451 54.2686 14.0939C59.0052 15.9886 64.5957 19.753 69.8353 24.9926Z" stroke="#E2A412" stroke-width="3.9375"/>
<path d="M56.4371 25.5036C63.2073 19.3773 65.4657 10.5953 59.6045 6.69398" stroke="#DE5833" stroke-width="3.9375" stroke-linecap="round" stroke-linejoin="round"/>
<path d="M68.2498 40.6875C74.3157 35.6575 84.4255 31.8851 93.1873 35.6575" stroke="#3969EF" stroke-width="3.9375" stroke-linecap="round" stroke-linejoin="round"/>
<path d="M72.1873 26.2497C72.6692 23.8985 71.7837 21.33 72.4462 19.0093C72.8106 17.733 81.633 25.8315 81.633 23.2037C81.633 22.3432 80.5733 16.1664 80.9543 16.1664C83.2415 16.1664 88.3256 17.6561 89.1196 14.5909C89.8001 11.964 87.5228 7.01721 84.2778 8.09972" stroke="#DE5833" stroke-width="3.9375" stroke-linecap="round"/>
</svg>
