<svg width="64" height="64" viewBox="0 0 64 64" fill="none" xmlns="http://www.w3.org/2000/svg">
<path d="M0 16C0 11.5817 3.58172 8 8 8H60C62.2091 8 64 9.79086 64 12V56C64 58.2091 62.2091 60 60 60H8C3.58172 60 0 56.4183 0 52V16Z" fill="#7295F6"/>
<path d="M0 52V8C0 3.58172 3.58172 0 8 0C12.4183 0 16 3.58172 16 8V47C16 47 16.0778 50.0663 15 48.124C13.6353 45.6646 11.012 44 8 44C3.58172 44 0 47.5817 0 52Z" fill="#ADC2FC"/>
<path fill-rule="evenodd" clip-rule="evenodd" d="M36.8263 17.8853C35.2201 19.5541 33.7161 20.5578 32.096 21.0918C30.4811 21.624 28.6363 21.7268 26.2674 21.4188C24.7597 21.2228 23.017 22.2401 23.0029 23.9516C22.9329 32.4259 24.1414 37.6367 26.5073 41.2855C29.142 45.3487 33.4689 47.5097 37.5674 49.6524C38.4534 50.1158 39.5465 50.1159 40.4326 49.6525C44.5072 47.5222 48.8735 45.3249 51.4927 41.2855C53.8587 37.6366 55.0672 32.4257 54.9971 23.951C54.983 22.2379 53.2375 21.2208 51.7289 21.4187C49.3828 21.7266 47.545 21.6444 45.9301 21.128C44.3007 20.6069 42.7782 19.6063 41.151 17.8963C40.0173 16.705 37.9661 16.7012 36.8263 17.8853Z" stroke="#CCDAFF" stroke-width="4" stroke-linejoin="round"/>
<path d="M39 18C39 28.3333 39 49 39 49" stroke="#CCDAFF" stroke-width="4" stroke-linecap="round"/>
<path d="M44 8L55.9395 8L55.9395 45.8935C55.9395 45.9643 55.9319 46.0349 55.917 46.1041L54.3636 53.3127C54.2017 54.0639 53.2883 54.3594 52.7171 53.8454L46.3172 48.0855C44.8423 46.758 44 44.8669 44 42.8825L44 8Z" fill="#CCDAFF" style="mix-blend-mode:multiply"/>
<path d="M49 5C49 2.23858 51.2386 -4.89257e-08 54 -1.09278e-07V-1.09278e-07C56.7614 -1.69631e-07 59 2.23858 59 5L59 45.4338C59 45.7851 58.8157 46.1106 58.5145 46.2913L54.5145 48.6913C54.1978 48.8813 53.8022 48.8813 53.4855 48.6913L49.4855 46.2913C49.1843 46.1106 49 45.7851 49 45.4338L49 5Z" fill="#F9BE1A"/>
<mask id="mask0_435_19549" style="mask-type:alpha" maskUnits="userSpaceOnUse" x="49" y="0" width="10" height="54">
<path d="M54.0302 0C51.2855 5.99874e-08 49.0605 2.22502 49.0605 4.96973L49.0605 45.7436C49.0605 45.9118 49.1029 46.0773 49.1838 46.2248L53.1286 53.4124C53.5072 54.1022 54.4973 54.1048 54.8794 53.4169L58.8741 46.2265C58.9566 46.078 58.9999 45.9108 58.9999 45.7409L58.9999 4.96973C58.9999 2.22502 56.7749 -5.99874e-08 54.0302 0Z" fill="#F9BE1A"/>
</mask>
<g mask="url(#mask0_435_19549)">
<path d="M46.9054 50.7565V-1.05437L52.1448 -1.05437V50.7565L46.9054 50.7565Z" fill="#E2A412"/>
<path d="M51.5601 43.9028L50.1187 44.5206C49.4315 44.8151 48.966 45.4682 48.9118 46.2139L48.3878 53.4214C48.3056 54.5519 49.1784 55.5247 50.3111 55.5652L57.5414 55.8234C58.7287 55.8658 59.6909 54.8701 59.6079 53.685L59.048 45.6852C59.017 45.2433 58.8275 44.8275 58.5143 44.5143C57.9182 43.9182 56.9929 43.8043 56.2699 44.238L56.029 44.3826C55.3956 44.7626 54.6044 44.7626 53.971 44.3826L53.3769 44.0261C52.8262 43.6957 52.1503 43.6499 51.5601 43.9028Z" fill="#FFDE7A"/>
<circle cx="53.8103" cy="54.8315" r="4.11639" transform="rotate(-45 53.8103 54.8315)" fill="#444444"/>
<path d="M61.3784 8.84189L47.407 8.84196L46.2427 -1.63665L61.3784 -1.63665L61.3784 8.84189Z" fill="#EB876C"/>
</g>
</svg>
