<svg width="64" height="65" viewBox="0 0 64 65" fill="none" xmlns="http://www.w3.org/2000/svg">
<ellipse cx="32" cy="61" rx="20" ry="4" fill="#CCCCCC"/>
<path d="M35 61V60.958C37.0517 60.9581 39.1035 60.0931 40.5312 58.3633C43.6145 54.6275 47.8456 49.5619 52.8574 43.7148C53.2829 43.2185 53.6596 42.7329 53.9883 42.2598C57.735 37.8883 59.9999 32.2088 60 26C59.9999 12.4088 49.1542 1.35117 35.6455 1.00879L35 1H30V1.50098C18.5889 3.81736 10.0001 13.9054 10 26C10.0001 32.2166 12.2703 37.9028 16.0254 42.2764C16.3512 42.744 16.7233 43.2235 17.1436 43.7139C22.1556 49.5612 26.3864 54.6274 29.4697 58.3633C29.638 58.5671 29.8154 58.7587 30 58.9385V61H35ZM35 35C30.0296 35 26.0002 30.9704 26 26C26.0001 21.0295 30.0295 17 35 17C39.9705 17 43.9999 21.0295 44 26C43.9998 30.9704 39.9704 35 35 35Z" fill="#9A3216"/>
<path d="M24.4688 58.3608C27.3242 61.8222 32.6778 61.8224 35.5332 58.3608C38.6165 54.6226 42.8462 49.5531 47.8574 43.7026C48.2828 43.206 48.6586 42.7209 48.9873 42.2476C52.7345 37.873 54.9999 32.1897 55 25.9761C55 12.1594 43.8071 0.958496 30 0.958496C16.1929 0.958496 5 12.1594 5 25.9761C5.00008 32.1967 7.2696 37.8866 11.0244 42.2632C11.3505 42.7316 11.7229 43.2115 12.1436 43.7026C17.1549 49.5533 21.3855 54.6225 24.4688 58.3608ZM30 34.9819C25.0296 34.9819 21.0002 30.9499 21 25.9761C21 21.0021 25.0294 16.9692 30 16.9692C34.9706 16.9692 39 21.0021 39 25.9761C38.9998 30.9499 34.9704 34.9819 30 34.9819Z" fill="#DE5833"/>
</svg>
