<svg width="64" height="64" viewBox="0 0 64 64" fill="none" xmlns="http://www.w3.org/2000/svg">
<path d="M7 14C7 10.6863 9.68629 8 13 8H54C57.3137 8 60 10.6863 60 14V50C60 53.3137 57.3137 56 54 56H13C9.68629 56 7 53.3137 7 50V14Z" fill="#7295F6"/>
<path d="M0 14C0 10.6863 2.68629 8 6 8H50C53.3137 8 56 10.6863 56 14V50C56 53.3137 53.3137 56 50 56H6C2.68629 56 0 53.3137 0 50V14Z" fill="#CCDAFF"/>
<path d="M0 50C0 53.3137 2.68629 56 6 56H50C53.3137 56 56 53.3137 56 50V49H0V50Z" fill="#ADC2FC"/>
<path fill-rule="evenodd" clip-rule="evenodd" d="M27.5528 51.1056C27.8343 50.9648 28.1657 50.9648 28.4472 51.1056L30.4472 52.1056C30.9412 52.3526 31.1414 52.9532 30.8944 53.4472C30.6474 53.9412 30.0467 54.1414 29.5528 53.8944L28 53.118L26.4472 53.8944C25.9532 54.1414 25.3525 53.9412 25.1055 53.4472C24.8586 52.9532 25.0588 52.3526 25.5528 52.1056L27.5528 51.1056Z" fill="#8FABF9"/>
<path d="M6 21C6 20.4477 6.44772 20 7 20H38.5C39.0523 20 39.5 20.4477 39.5 21V23C39.5 23.5523 39.0523 24 38.5 24H7C6.44771 24 6 23.5523 6 23V21Z" fill="#ADC2FC"/>
<path d="M6 28C6 27.4477 6.44772 27 7 27H36C36.5523 27 37 27.4477 37 28V30C37 30.5523 36.5523 31 36 31H7C6.44771 31 6 30.5523 6 30V28Z" fill="#ADC2FC"/>
<path d="M6 35C6 34.4477 6.44772 34 7 34H36C36.5523 34 37 34.4477 37 35V37C37 37.5523 36.5523 38 36 38H7C6.44771 38 6 37.5523 6 37V35Z" fill="#ADC2FC"/>
<path d="M6 42C6 41.4477 6.44772 41 7 41H27C27.5523 41 28 41.4477 28 42V44C28 44.5523 27.5523 45 27 45H7C6.44772 45 6 44.5523 6 44V42Z" fill="#ADC2FC"/>
<path d="M6 14C6 13.4477 6.44772 13 7 13H21C21.5523 13 22 13.4477 22 14V16C22 16.5523 21.5523 17 21 17H7C6.44772 17 6 16.5523 6 16V14Z" fill="#7295F6"/>
<path d="M60 42.6474C55.6639 45.4036 50.5184 47 45 47C29.536 47 17 34.464 17 19C17 15.0951 17.7994 11.3768 19.2434 8H54C57.3137 8 60 10.6863 60 14V42.6474Z" fill="url(#paint0_radial_391_5171)"/>
<path opacity="0.6" d="M60 23.8271L57.9026 24.3515C54.1843 25.2811 51.281 28.1843 50.3514 31.9026L48.9777 37.3976C47.9425 41.5384 42.0577 41.5384 41.0225 37.3976L39.6488 31.9026C38.7192 28.1843 35.8159 25.2811 32.0976 24.3515L26.6027 22.9777C22.4619 21.9426 22.4618 16.0578 26.6027 15.0226L32.0976 13.6488C35.1538 12.8848 37.6593 10.7874 38.9709 8.00006H44.31C42.7575 13.1773 38.588 17.1801 33.3103 18.4995L31.3079 19.0002L33.3103 19.5008C38.82 20.8782 43.1221 25.1802 44.4995 30.6899L45.0001 32.6924L45.5007 30.6899C46.8781 25.1802 51.1802 20.8782 56.6899 19.5008L58.6923 19.0002L56.6899 18.4995C51.4122 17.1801 47.2427 13.1773 45.6902 8.00006H51.0293C52.3409 10.7874 54.8464 12.8848 57.9026 13.6488L60 14.1732V23.8271Z" fill="white"/>
<path d="M43.4478 1.20892C43.8517 -0.407 46.1482 -0.407004 46.5522 1.20892L47.9259 6.70388C49.0795 11.3179 52.6821 14.9205 57.2961 16.074L62.7911 17.4478C64.407 17.8518 64.407 20.1483 62.7911 20.5522L57.2961 21.926C52.6821 23.0795 49.0794 26.6821 47.9259 31.2961L46.5522 36.7911C46.1482 38.407 43.8517 38.407 43.4478 36.7911L42.074 31.2961C40.9205 26.6821 37.3179 23.0795 32.7039 21.926L27.2089 20.5522C25.593 20.1483 25.593 17.8518 27.2089 17.4478L32.7038 16.074C37.3179 14.9205 40.9205 11.3179 42.074 6.70388L43.4478 1.20892Z" fill="url(#paint1_radial_391_5171)"/>
<defs>
<radialGradient id="paint0_radial_391_5171" cx="0" cy="0" r="1" gradientUnits="userSpaceOnUse" gradientTransform="translate(47.5 16.5) rotate(-90) scale(25.5)">
<stop stop-color="white"/>
<stop offset="1" stop-color="white" stop-opacity="0"/>
</radialGradient>
<radialGradient id="paint1_radial_391_5171" cx="0" cy="0" r="1" gradientUnits="userSpaceOnUse" gradientTransform="translate(43.0975 11.9756) rotate(54.2856) scale(27.5763 27.5763)">
<stop offset="0.0719359" stop-color="#FFE8A3"/>
<stop offset="0.881102" stop-color="#F9BE1A"/>
</radialGradient>
</defs>
</svg>
