<svg width="64" height="64" viewBox="0 0 64 64" fill="none" xmlns="http://www.w3.org/2000/svg">
<path d="M59 4C61.7614 4 64 6.23858 64 9L64 47C64 54.1797 58.1797 60 51 60L13 60C5.8203 60 1.62127e-06 54.1797 1.93511e-06 47L3.24645e-06 17C3.56028e-06 9.8203 5.8203 4 13 4L59 4Z" fill="#E2A412"/>
<rect x="15.7075" width="48.8116" height="24" transform="rotate(18.7321 15.7075 0)" fill="#876ECB"/>
<path d="M11 13.9999C7.13401 13.9999 4 17.1339 4 20.9999L4 51.9998C4 56.4181 7.58172 59.9998 12 59.9998L51 59.9998C58.1797 59.9998 64 54.1795 64 46.9998L64 20.5L64 9C64 11.7614 61.7615 13.9999 59.0001 13.9999L34 13.9999L11 13.9999Z" fill="#F9BE1A"/>
<path d="M0 29H23C25.7614 29 28 31.2386 28 34V40C28 42.7614 25.7614 45 23 45H5C2.23858 45 0 42.7614 0 40V29Z" fill="#E2A412"/>
<path d="M0 31V21V22C0 24.7614 2.23858 27 5 27H23C25.7614 27 28 29.2386 28 32V38C28 40.7614 25.7614 43 23 43H5C2.23858 43 0 40.7614 0 38V31Z" fill="#FFCC33"/>
<circle cx="21" cy="35" r="4" fill="#E2A412"/>
</svg>
