<svg width="64" height="64" viewBox="0 0 64 64" fill="none" xmlns="http://www.w3.org/2000/svg">
<rect width="64" height="64" rx="32" fill="#DE5833"/>
<path fill-rule="evenodd" clip-rule="evenodd" d="M39.2105 60.687C37.8662 58.0733 36.5807 55.6684 35.7827 54.0777C33.6617 49.8304 31.53 43.8423 32.4994 39.9806C32.6762 39.279 30.5016 13.9985 28.9645 13.1844C27.2559 12.2739 25.1537 10.8295 23.2309 10.5081C22.2553 10.3521 20.9761 10.426 19.9762 10.5607C19.7985 10.5846 19.7911 10.904 19.961 10.9616C20.6174 11.184 21.4146 11.5702 21.8844 12.1541C21.9733 12.2646 21.854 12.4384 21.7122 12.4436C21.2694 12.46 20.466 12.6457 19.4061 13.546C19.2835 13.6501 19.3853 13.8434 19.5431 13.8122C21.821 13.3616 24.1474 13.5836 25.5184 14.8297C25.6073 14.9106 25.5608 15.0557 25.4448 15.0872C13.5473 18.3204 15.9025 28.6699 19.0698 41.3705C22.054 53.3373 23.4695 58.057 23.6401 58.6173C23.6515 58.655 23.6725 58.6839 23.707 58.7029C26.1592 60.0486 39.0527 60.8657 38.506 59.3248L39.2105 60.687Z" fill="#DDDDDD"/>
<path fill-rule="evenodd" clip-rule="evenodd" d="M61.5 32C61.5 48.2924 48.2924 61.5 32 61.5C15.7076 61.5 2.5 48.2924 2.5 32C2.5 15.7076 15.7076 2.5 32 2.5C48.2924 2.5 61.5 15.7076 61.5 32ZM25.1216 58.0796C24.2268 55.2991 21.9414 47.9555 19.7719 39.0625C19.6969 38.7551 19.622 38.4492 19.5475 38.1449L19.5456 38.1373C16.8219 27.0121 14.5973 17.9254 26.7899 15.0708C26.9013 15.0447 26.9558 14.9114 26.8821 14.8239C25.4831 13.1643 22.8624 12.6203 19.5487 13.7635C19.4128 13.8104 19.2948 13.6733 19.3792 13.557C20.029 12.6613 21.2989 11.9727 21.9258 11.6708C22.0554 11.6084 22.0475 11.4186 21.9102 11.3757C21.5001 11.2473 20.802 11.0509 20.0166 10.9241C19.8308 10.8941 19.8141 10.5757 20.0006 10.5506C24.6984 9.91857 29.604 11.329 32.0657 14.4299C32.0889 14.4591 32.1224 14.4795 32.1589 14.4873C41.1735 16.4233 41.8189 30.6734 40.7805 31.3224C40.5757 31.4504 39.9196 31.377 39.0541 31.2801C35.5466 30.8877 28.6009 30.1106 34.3334 40.7941C34.39 40.8996 34.315 41.0393 34.1967 41.0577C31.012 41.5529 35.1105 51.5845 38.1438 58.2618C50.0758 55.4813 58.9648 44.7787 58.9648 32C58.9648 17.1077 46.8923 5.03516 32 5.03516C17.1077 5.03516 5.03516 17.1077 5.03516 32C5.03516 44.5151 13.5612 55.0388 25.1216 58.0796Z" fill="white"/>
<path d="M42.1833 45.406C41.497 45.088 38.8583 46.9803 37.107 48.4329C36.7409 47.9151 36.0508 47.5386 34.4941 47.8093C33.1316 48.0462 32.3794 48.3748 32.0438 48.9411C29.8933 48.1258 26.2753 46.8675 25.4013 48.0827C24.4459 49.4111 25.64 55.6952 26.909 56.5111C27.5715 56.9371 30.7405 54.9002 32.3954 53.4955C32.6624 53.8717 33.0922 54.087 33.9759 54.0665C35.3124 54.0355 37.48 53.7245 37.8165 53.1021C37.8369 53.0643 37.8545 53.0196 37.8695 52.9687C39.5704 53.6045 42.564 54.2772 43.2329 54.1768C44.9757 53.915 42.9901 45.7798 42.1833 45.406Z" fill="#3CA82B"/>
<path d="M37.2674 48.6186C37.3396 48.7473 37.3976 48.883 37.4469 49.021C37.6894 49.6991 38.0845 51.8565 37.7857 52.3894C37.487 52.9223 35.5465 53.1797 34.3495 53.2003C33.1525 53.221 32.883 52.7832 32.6405 52.105C32.4465 51.5625 32.351 50.287 32.3534 49.5566C32.3043 48.4733 32.7001 48.0925 34.5296 47.7964C35.8834 47.5773 36.5992 47.8321 37.0124 48.2682C38.9345 46.8336 42.1415 44.8091 42.4543 45.1791C44.0139 47.0241 44.2111 51.4159 43.8734 53.1828C43.763 53.7605 38.5986 52.6105 38.5986 51.9875C38.5986 49.4008 37.9274 48.6911 37.2674 48.6186Z" fill="#4CBA3C"/>
<path d="M25.9546 47.8108C26.3776 47.1413 29.8077 47.9738 31.6905 48.8118C31.6905 48.8118 31.3036 50.5647 31.9196 52.6299C32.0998 53.234 27.5878 55.9227 26.9989 55.4601C26.3182 54.9255 25.0656 49.2178 25.9546 47.8108Z" fill="#4CBA3C"/>
<path fill-rule="evenodd" clip-rule="evenodd" d="M27.6158 34.2126C27.8934 33.0059 29.1861 30.7318 33.8026 30.7871C36.1365 30.7774 39.0356 30.7861 40.9576 30.5677C43.8143 30.2432 45.9348 29.5522 47.3478 29.0136C49.3462 28.2512 50.0553 28.4213 50.304 28.8775C50.5771 29.3787 50.2552 30.2442 49.557 31.041C48.2232 32.5628 45.8255 33.7421 41.5908 34.0921C37.3561 34.4421 34.5506 33.3062 33.343 35.1556C32.8221 35.9532 33.2248 37.8332 37.32 38.4252C42.8539 39.2238 47.3988 37.4628 47.9604 38.5264C48.522 39.5899 45.2871 41.7538 39.7443 41.7991C34.2014 41.8444 30.7392 39.8584 29.5115 38.8713C27.9538 37.6188 27.2567 35.7922 27.6158 34.2126Z" fill="#FFCC33"/>
<g opacity="0.8">
<path d="M34.6748 21.0171C34.9839 20.5109 35.6696 20.1201 36.7915 20.1201C37.9135 20.1201 38.4414 20.5666 38.8068 21.0644C38.8811 21.1657 38.7685 21.2849 38.6532 21.2351C38.6255 21.2231 38.5974 21.2108 38.5688 21.1983C38.1585 21.0191 37.6547 20.7991 36.7915 20.7868C35.8684 20.7737 35.2863 21.0049 34.9197 21.2041C34.7962 21.2713 34.6015 21.1371 34.6748 21.0171Z" fill="#14307E"/>
<path d="M22.0432 21.6648C23.1326 21.2095 23.9889 21.2684 24.5942 21.4116C24.7216 21.4417 24.8102 21.3046 24.7083 21.2224C24.2385 20.8434 23.187 20.3729 21.8155 20.8843C20.5922 21.3405 20.0156 22.2883 20.0121 22.9114C20.0113 23.0583 20.3135 23.0707 20.3916 22.9464C20.6028 22.6105 20.9537 22.1201 22.0432 21.6648Z" fill="#14307E"/>
<path fill-rule="evenodd" clip-rule="evenodd" d="M37.7446 27.9428C36.7814 27.9428 36.0001 27.1637 36.0001 26.2049C36.0001 25.246 36.7814 24.4669 37.7446 24.4669C38.7077 24.4669 39.489 25.246 39.489 26.2049C39.489 27.1637 38.7077 27.9428 37.7446 27.9428ZM38.9731 25.6291C38.9731 25.3808 38.7698 25.1796 38.5215 25.1796C38.2732 25.1796 38.072 25.3808 38.0699 25.6291C38.0699 25.8774 38.2732 26.0786 38.5215 26.0786C38.7719 26.0786 38.9731 25.8774 38.9731 25.6291Z" fill="#14307E"/>
<path fill-rule="evenodd" clip-rule="evenodd" d="M26.187 27.4077C26.187 28.5271 25.2774 29.4346 24.1537 29.4346C23.0321 29.4346 22.1204 28.5271 22.1204 27.4077C22.1204 26.2883 23.0321 25.3807 24.1537 25.3807C25.2752 25.3807 26.187 26.2883 26.187 27.4077ZM25.5877 26.7356C25.5877 26.4466 25.3523 26.2112 25.0612 26.2112C24.7722 26.2112 24.5368 26.4445 24.5347 26.7356C24.5347 27.0245 24.7701 27.26 25.0612 27.26C25.3523 27.26 25.5877 27.0245 25.5877 26.7356Z" fill="#14307E"/>
</g>
</svg>
