<svg width="64" height="64" viewBox="0 0 64 64" fill="none" xmlns="http://www.w3.org/2000/svg">
<path d="M12 8C12 3.58172 15.5817 0 20 0H52C56.4183 0 60 3.58172 60 8V56C60 60.4183 56.4183 64 52 64H20C15.5817 64 12 60.4183 12 56V8Z" fill="#C18010"/>
<path d="M8 13C8 7.47715 12.4772 3 18 3H52C54.7614 3 57 5.23858 57 8V56C57 58.7614 54.7614 61 52 61H18C12.4772 61 8 56.5228 8 51V13Z" fill="#FFF0C2"/>
<path d="M4 15C4 6.71573 10.7157 0 19 0H45C49.4183 0 53 3.58172 53 8V56C53 60.4183 49.4183 64 45 64H19C10.7157 64 4 57.2843 4 49V15Z" fill="#E2A412"/>
<path d="M19 64L12 64C7.58172 64 3.99999 60.4183 3.99999 56L4 8C4 3.58172 7.58172 -9.98218e-07 12 -6.1196e-07L19 0L19 64Z" fill="#C18010"/>
<path d="M46 -0.000244141H32V1.99976V29.0352C32 30.6767 33.8683 31.6192 35.1886 30.6437L37.8114 28.7056C38.5179 28.1836 39.4821 28.1836 40.1886 28.7056L42.8114 30.6437C44.1317 31.6192 46 30.6767 46 29.0352V1.99976V-0.000244141Z" fill="#3969EF"/>
</svg>
