<svg width="64" height="66" viewBox="0 0 64 66" fill="none" xmlns="http://www.w3.org/2000/svg">
<path fill-rule="evenodd" clip-rule="evenodd" d="M53.2251 19.0619C53.2251 29.0688 45.1128 37.1811 35.1059 37.1811C33.2005 37.1811 31.3638 36.887 29.6387 36.3417L26.6126 39.3678H20.2865V44.5632C20.2865 45.123 19.8327 45.5768 19.2729 45.5768H13.9604V53.1543C13.9604 53.7141 13.5066 54.1679 12.9468 54.1679H-7.62939e-06V41.2813L17.5848 23.6965C17.1945 22.2172 16.9866 20.6638 16.9866 19.0619C16.9866 9.05489 25.0989 0.942627 35.1059 0.942627C45.1128 0.942627 53.2251 9.05489 53.2251 19.0619ZM40.202 19.6281C43.3292 19.6281 45.8642 17.093 45.8642 13.9658C45.8642 10.8386 43.3292 8.30354 40.202 8.30354C37.0748 8.30354 34.5397 10.8386 34.5397 13.9658C34.5397 17.093 37.0748 19.6281 40.202 19.6281Z" fill="#E2A412"/>
<path fill-rule="evenodd" clip-rule="evenodd" d="M56.2251 19.0619C56.2251 29.0688 48.1128 37.1811 38.1059 37.1811C36.2005 37.1811 34.3638 36.887 32.6387 36.3417L29.6126 39.3678H23.2865V44.5632C23.2865 45.123 22.8327 45.5768 22.2729 45.5768H16.9604V53.1543C16.9604 53.7141 16.5066 54.1679 15.9468 54.1679H2.99999V41.2813L20.5848 23.6965C20.1945 22.2172 19.9866 20.6638 19.9866 19.0619C19.9866 9.05489 28.0989 0.942627 38.1059 0.942627C48.1128 0.942627 56.2251 9.05489 56.2251 19.0619ZM43.202 19.6281C46.3292 19.6281 48.8642 17.093 48.8642 13.9658C48.8642 10.8386 46.3292 8.30354 43.202 8.30354C40.0748 8.30354 37.5397 10.8386 37.5397 13.9658C37.5397 17.093 40.0748 19.6281 43.202 19.6281Z" fill="#F9BE1A"/>
<path fill-rule="evenodd" clip-rule="evenodd" d="M58.2863 16.055C61.6689 24.9219 57.2229 34.8521 48.356 38.2347C46.6676 38.8788 44.9406 39.239 43.2277 39.3389L41.5692 43.0431L35.9638 45.1815L37.7013 49.7361C37.9008 50.2591 37.6386 50.8448 37.1156 51.0443L32.4572 52.8214L26.6333 64.5887C26.4623 64.9341 26.1103 65.1527 25.7249 65.1527L22.9912 65.1527L18.6352 53.7342L28.2727 32.2086C27.4269 31.0297 26.7177 29.7237 26.1763 28.3043C22.7937 19.4374 27.2397 9.50723 36.1066 6.12467C44.9735 2.74211 54.9037 7.18807 58.2863 16.055ZM46.938 20.9588C49.7089 19.9018 51.0983 16.7986 50.0412 14.0277C48.9842 11.2567 45.881 9.86738 43.1101 10.9244C40.3392 11.9815 38.9498 15.0847 40.0068 17.8556C41.0639 20.6265 44.1671 22.0159 46.938 20.9588Z" fill="#E2A412"/>
<path fill-rule="evenodd" clip-rule="evenodd" d="M61.1984 16.055C64.581 24.9219 60.135 34.8521 51.2681 38.2347C49.5797 38.8788 47.8527 39.239 46.1398 39.3389L44.4813 43.0431L38.8759 45.1815L40.6134 49.7361C40.8129 50.2591 40.5507 50.8448 40.0277 51.0443L35.3693 52.8214L37.912 59.4868C38.1115 60.0098 37.8493 60.5956 37.3262 60.7951L25.9033 65.1527L21.5473 53.7342L31.1848 32.2086C30.3391 31.0297 29.6298 29.7237 29.0884 28.3043C25.7058 19.4374 30.1518 9.50723 39.0187 6.12467C47.8857 2.74211 57.8158 7.18807 61.1984 16.055ZM49.8503 20.9588C52.6212 19.9018 54.0106 16.7986 52.9535 14.0277C51.8965 11.2567 48.7933 9.86737 46.0224 10.9244C43.2515 11.9815 41.8621 15.0847 42.9191 17.8556C43.9762 20.6265 47.0794 22.0159 49.8503 20.9588Z" fill="#FFCC33"/>
<path d="M49.0005 17C53.6705 16.9998 58.0005 13.6963 58.0005 9C58.0005 4.30375 53.6705 1.00022 49.0005 1C47.396 1 45.8316 1.39043 44.4692 2.09277C46.3319 2.79161 48.0487 3.78794 49.562 5.02441C52.297 5.2593 54.0005 7.18997 54.0005 9C54.0005 10.9309 52.062 12.9998 49.0005 13C47.2737 13 45.9035 12.3422 45.0376 11.4219C43.8401 12.1881 43.0191 13.3864 42.7065 14.7246C44.3769 16.1597 46.6455 17 49.0005 17Z" fill="#999999"/>
<path d="M49.0005 17C50.4004 16.9999 51.7691 16.7015 53.0005 16.1592V11.3789C52.1369 12.321 50.7532 12.9999 49.0005 13C47.2737 13 45.9035 12.3422 45.0376 11.4219C43.8401 12.1881 43.0191 13.3864 42.7065 14.7246C44.3769 16.1597 46.6455 17 49.0005 17Z" fill="url(#paint0_linear_433_19422)"/>
<defs>
<linearGradient id="paint0_linear_433_19422" x1="46.0008" y1="13.999" x2="52.0005" y2="13.999" gradientUnits="userSpaceOnUse">
<stop stop-color="#5F5F5F"/>
<stop offset="1" stop-color="#999999" stop-opacity="0"/>
</linearGradient>
</defs>
</svg>
