<svg width="64" height="64" viewBox="0 0 64 64" fill="none" xmlns="http://www.w3.org/2000/svg">
<path fill-rule="evenodd" clip-rule="evenodd" d="M39.2581 2.46099C37.6 0.687909 35.4995 -0.0135723 32.9998 0.000198532C26.5006 -0.0135146 27.4253 0.923303 26.0006 2.42954C23.46 5.11575 22.959 6.56598 20.7052 7.32191C18.44 8.08166 15.8379 9.50777 12 9C7.72305 8.43414 2.04224 7.80667 2.00351 12.5793C1.8807 27.7111 4.98742 40.1953 9.54468 47.3477C14.592 55.2694 19.6021 59.3945 26.5006 63.0648C28.844 64.3118 34.9263 64.3118 37.2696 63.0646C44.168 59.3945 52.4115 55.2693 57.4588 47.3477C62.0162 40.1951 64.1178 30.3135 63.9949 15.181C63.9561 10.4043 60.1997 7.7783 55.1292 7.7783C54.591 7.7783 52.6692 7.67228 51.9975 7.72058C51.3919 7.76413 51.8166 8.0671 51.2682 8.06977C49.3355 8.0792 47.7367 7.83887 46.3199 7.37778C44.0617 6.64287 41.8235 5.20445 39.2581 2.46099Z" fill="url(#paint0_linear_430_16512)"/>
<path fill-rule="evenodd" clip-rule="evenodd" d="M35.6623 2.47401C32.6356 -0.815743 27.3492 -0.823059 24.3104 2.44257C21.8113 5.12821 19.6295 6.57813 17.4125 7.3339C15.1843 8.09349 12.4914 8.29757 8.71623 7.78991C4.50915 7.22417 0.0430905 10.4208 0.00499701 15.1924C-0.115806 30.3211 1.9515 40.2003 6.43431 47.3513C11.3992 55.2712 19.5082 59.3955 26.2939 63.065C28.599 64.3117 31.4013 64.3117 33.7063 63.0648C40.492 59.3954 48.6009 55.2711 53.5657 47.3513C58.0486 40.2002 60.1159 30.3206 59.995 15.1914C59.9568 10.4156 55.4839 7.21879 51.2742 7.7902C47.5214 8.29958 44.8364 8.12662 42.6087 7.38976C40.3874 6.655 38.1858 5.21689 35.6623 2.47401Z" fill="url(#paint1_linear_430_16512)"/>
<path fill-rule="evenodd" clip-rule="evenodd" d="M35.6623 2.47401C32.6356 -0.815743 27.3492 -0.823059 24.3104 2.44257C21.8113 5.12821 19.6295 6.57813 17.4125 7.3339C15.1843 8.09349 12.4914 8.29757 8.71623 7.78991C4.50915 7.22417 0.0430907 10.4208 0.00499725 15.1924C-0.115806 30.3211 1.9515 40.2003 6.43431 47.3513C11.3992 55.2712 19.5082 59.3955 26.2939 63.065C28.599 64.3117 31.4013 64.3117 33.7063 63.0648C40.492 59.3954 48.6009 55.2711 53.5657 47.3513C58.0486 40.2002 60.1159 30.3206 59.995 15.1914C59.9568 10.4156 55.4839 7.21879 51.2742 7.7902C47.5214 8.29958 44.8364 8.12662 42.6087 7.38976C40.3874 6.655 38.1858 5.21689 35.6623 2.47401Z" fill="url(#paint2_linear_430_16512)"/>
<path d="M29.9984 3.3501C30.2233 1.57 28.8563 -0.124622 27.1792 0.513088C26.1181 0.916573 25.1322 1.55951 24.3105 2.44244C21.8116 5.12793 19.6299 6.57824 17.4131 7.33405C15.185 8.09361 12.4917 8.29768 8.7168 7.7901C4.50973 7.22436 0.0429762 10.4208 0.00488281 15.1924C-0.115917 30.3211 1.95178 40.2007 6.43457 47.3516C11.3994 55.2713 19.5084 59.3951 26.2939 63.0645C26.5028 63.1775 26.7158 63.2802 26.9321 63.3726C28.5525 64.0646 29.9675 62.4915 29.8076 60.7368C29.2392 54.503 28.5225 44.135 28.5225 31.4756C28.5225 17.3378 29.4156 7.96254 29.9984 3.3501Z" fill="url(#paint3_linear_430_16512)"/>
<path fill-rule="evenodd" clip-rule="evenodd" d="M28.6727 58.667L28.6723 58.6668C28.479 58.5623 28.2858 58.458 28.093 58.3537C21.2378 54.6501 14.6951 51.1152 10.6707 44.6955C6.93916 38.743 4.88685 30.0089 5.00484 15.2324C5.01074 14.4933 5.33378 13.8661 5.93105 13.3857C6.57777 12.8655 7.38828 12.6563 8.04986 12.7453C12.301 13.317 15.8305 13.1558 19.0258 12.0665C22.2343 10.9727 25.0829 8.95207 27.9707 5.84872C29.0278 4.71282 30.9324 4.71784 31.9827 5.85935C34.9141 9.04554 37.8029 11.0666 41.0386 12.1368C44.2352 13.1942 47.7492 13.3145 51.9467 12.7448C52.6086 12.6549 53.4201 12.8635 54.0677 13.3837C54.6657 13.8641 54.9892 14.4916 54.9952 15.2313C55.1132 30.0085 53.0609 38.7429 49.3293 44.6955C45.3047 51.1155 38.7616 54.6505 31.9062 58.3542C31.7137 58.4582 31.521 58.5623 31.328 58.6666L31.3274 58.667C30.5066 59.111 29.4935 59.111 28.6727 58.667ZM33.7063 63.0648C31.4013 64.3117 28.599 64.3117 26.2939 63.065C25.9888 62.8999 25.681 62.734 25.3709 62.5669C18.7853 59.0169 11.1759 54.9151 6.43431 47.3513C1.9515 40.2003 -0.115807 30.3211 0.00499725 15.1924C0.0430908 10.4208 4.50915 7.22417 8.71623 7.78991C12.4914 8.29757 15.1843 8.09349 17.4125 7.3339C19.6295 6.57813 21.8113 5.12821 24.3104 2.44257C27.3492 -0.823059 32.6356 -0.815742 35.6623 2.474C38.1858 5.21689 40.3874 6.655 42.6087 7.38976C44.8364 8.12662 47.5214 8.29958 51.2742 7.7902C55.4839 7.21879 59.9568 10.4156 59.995 15.1914C60.1159 30.3206 58.0486 40.2002 53.5657 47.3513C48.8239 54.9153 41.2143 59.0172 34.6285 62.5672C34.3187 62.7342 34.0112 62.8999 33.7063 63.0648Z" fill="url(#paint4_linear_430_16512)"/>
<path d="M30.4878 0.0183716C28.2466 -0.127779 25.9515 0.679579 24.311 2.4422C21.812 5.12774 19.6295 6.57801 17.4126 7.3338C15.1846 8.09323 12.4919 8.29737 8.71729 7.78986C4.51029 7.22412 0.0436207 10.4207 0.00537109 15.1922C-0.115431 30.3208 1.95228 40.2004 6.43506 47.3514C11.4 55.2712 19.5088 59.3958 26.2944 63.0652C27.5117 63.7236 28.8673 64.0302 30.2153 63.993C30.1113 62.6912 29.987 61.0102 29.8579 58.9949C29.4475 58.9743 29.0412 58.8657 28.6733 58.6668H28.6724C21.6082 54.8468 14.809 51.2954 10.6714 44.6951C6.93992 38.7426 4.88739 30.0086 5.00537 15.2322C5.01133 14.4933 5.33492 13.8659 5.93213 13.3856C6.57871 12.8657 7.38893 12.6561 8.05029 12.7449C12.3014 13.3166 15.8315 13.1555 19.0269 12.0662C22.2351 10.9724 25.0836 8.95157 27.9712 5.84845C28.4979 5.28251 29.2351 4.99967 29.9722 4.99982C30.2393 1.86946 30.4616 0.207992 30.4878 0.0183716Z" fill="url(#paint5_linear_430_16512)"/>
<defs>
<linearGradient id="paint0_linear_430_16512" x1="33" y1="-0.000138979" x2="33" y2="63.9999" gradientUnits="userSpaceOnUse">
<stop stop-color="#2B55CA"/>
<stop offset="1" stop-color="#876ECB"/>
</linearGradient>
<linearGradient id="paint1_linear_430_16512" x1="30" y1="64" x2="30" y2="0" gradientUnits="userSpaceOnUse">
<stop stop-color="#C7B9EE"/>
<stop offset="0.638361" stop-color="#A0A8F2"/>
<stop offset="1" stop-color="#7295F6"/>
</linearGradient>
<linearGradient id="paint2_linear_430_16512" x1="30" y1="64" x2="30" y2="0" gradientUnits="userSpaceOnUse">
<stop stop-color="#C7B9EE"/>
<stop offset="0.638361" stop-color="#A0A8F2"/>
<stop offset="1" stop-color="#7295F6"/>
</linearGradient>
<linearGradient id="paint3_linear_430_16512" x1="15.0111" y1="63.5396" x2="15.0111" y2="0.376038" gradientUnits="userSpaceOnUse">
<stop stop-color="#D9D1EE"/>
<stop offset="0.638361" stop-color="#B8BEF2"/>
<stop offset="1" stop-color="#8AA6F6"/>
</linearGradient>
<linearGradient id="paint4_linear_430_16512" x1="30" y1="64" x2="30" y2="0" gradientUnits="userSpaceOnUse">
<stop stop-color="#AB94EE"/>
<stop offset="0.638361" stop-color="#8793F2"/>
<stop offset="1" stop-color="#517DF6"/>
</linearGradient>
<linearGradient id="paint5_linear_430_16512" x1="15.2441" y1="63.9962" x2="15.2441" y2="0.00177002" gradientUnits="userSpaceOnUse">
<stop stop-color="#C7B9EE"/>
<stop offset="0.638361" stop-color="#A0A8F2"/>
<stop offset="1" stop-color="#7295F6"/>
</linearGradient>
</defs>
</svg>
