<svg width="74" height="64" viewBox="0 0 74 64" fill="none" xmlns="http://www.w3.org/2000/svg">
<path d="M31.2295 2C37.4571 5.51957 37.8569 11.4 39.627 17C39.9268 17.9487 41.5416 21.9998 46.9395 22C51.7379 22 53.7225 19.2712 54.3223 18C54.9219 16.7291 55.2217 14.0014 55.5215 14.2285C55.8214 14.4573 66 23.8646 66 40.1357C65.9999 52.339 54.0219 60 37.5273 60C21.0328 59.9999 6.93761 52.339 6.9375 40.1357C6.9375 23.8646 23.1321 19.7966 31.2295 2Z" fill="url(#paint0_linear_430_16770)"/>
<path d="M30.8105 2L31.8076 0.266242C31.3172 -0.0157515 30.7304 -0.0769083 30.1924 0.0979195C29.6544 0.272747 29.2157 0.667208 28.9848 1.1836L30.8105 2ZM39.0635 17L37.1535 17.5933L37.1535 17.5933L39.0635 17ZM53.5049 18L55.3193 18.8414L55.3193 18.8414L53.5049 18ZM54.6836 14.2285L55.9101 12.6487L55.9036 12.6437L54.6836 14.2285ZM67.0625 40.1357L69.0625 40.1358V40.1357H67.0625ZM47.4062 60.627L47.9318 62.5567L47.9318 62.5567L47.4062 60.627ZM37 62L37 64H37V62ZM26.5938 60.627L26.0682 62.5567L26.0682 62.5567L26.5938 60.627ZM6.9375 40.1357L4.9375 40.1357L4.9375 40.1358L6.9375 40.1357ZM30.8105 2L29.8135 3.73376C32.4064 5.22487 33.7786 7.18266 34.7319 9.48501C35.2214 10.667 35.598 11.9356 35.9702 13.3111C36.3322 14.649 36.7041 16.1464 37.1535 17.5933L39.0635 17L40.9735 16.4067C40.5531 15.0536 40.2236 13.716 39.8313 12.2664C39.4493 10.8543 39.019 9.3828 38.4276 7.9547C37.2194 5.03692 35.3349 2.29469 31.8076 0.266242L30.8105 2ZM39.0635 17L37.1535 17.5933C37.3525 18.234 37.9467 19.8085 39.3418 21.2478C40.7886 22.7404 43.0192 24 46.25 24V22V20C44.1758 20 42.9605 19.234 42.214 18.4638C41.4158 17.6404 41.0692 16.7149 40.9734 16.4067L39.0635 17ZM46.25 22V24C51.9337 24 54.4901 20.6296 55.3193 18.8414L53.5049 18L51.6905 17.1586C51.3408 17.9128 49.9977 20 46.25 20V22ZM53.5049 18L55.3193 18.8414C55.7251 17.9663 55.9926 16.7121 56.1552 15.9949C56.2543 15.5579 56.3168 15.2964 56.3621 15.1551C56.3972 15.0461 56.3649 15.193 56.2296 15.3932C56.1764 15.4719 55.9258 15.842 55.4081 16.0613C55.11 16.1874 54.742 16.254 54.3446 16.1914C53.9585 16.1305 53.6627 15.9666 53.4636 15.8133L54.6836 14.2285L55.9036 12.6437C55.3852 12.2446 54.6103 12.0553 53.8485 12.3778C53.2938 12.6127 53.006 13.0194 52.9154 13.1535C52.7053 13.4644 52.5971 13.7971 52.5538 13.9317C52.4427 14.2777 52.3393 14.735 52.2542 15.1104C52.0485 16.018 51.8739 16.763 51.6905 17.1586L53.5049 18ZM54.6836 14.2285L53.4571 15.8083C53.6696 15.9733 65.0625 24.859 65.0625 40.1357H67.0625H69.0625C69.0625 22.8701 56.287 12.9414 55.9101 12.6487L54.6836 14.2285ZM67.0625 40.1357L65.0625 40.1357C65.0624 48.3192 57.7613 55.7342 46.8807 58.6972L47.4062 60.627L47.9318 62.5567C59.6776 59.358 69.0624 50.8934 69.0625 40.1358L67.0625 40.1357ZM47.4062 60.627L46.8807 58.6972C43.7884 59.5393 40.4532 60 37 60V62V64C40.8067 64 44.4953 63.4925 47.9318 62.5567L47.4062 60.627ZM37 62L37 60C33.5468 60 30.2117 59.5394 27.1193 58.6972L26.5938 60.627L26.0682 62.5567C29.5047 63.4925 33.1933 64 37 64L37 62ZM26.5938 60.627L27.1193 58.6972C16.2387 55.7342 8.93758 48.3192 8.9375 40.1357L6.9375 40.1357L4.9375 40.1358C4.9376 50.8934 14.3223 59.358 26.0682 62.5567L26.5938 60.627ZM6.9375 40.1357H8.9375C8.9375 32.8089 12.4409 28.2138 17.3451 23.0118C22.2154 17.8459 28.4858 12.0985 32.6363 2.8164L30.8105 2L28.9848 1.1836C25.1775 9.69808 19.5114 14.8829 14.4346 20.2679C9.39172 25.617 4.9375 31.1915 4.9375 40.1357H6.9375Z" fill="url(#paint1_linear_430_16770)"/>
<rect x="15" y="28" width="48" height="36" rx="6" fill="#999999"/>
<rect x="11" y="28" width="48" height="36" rx="6" fill="#F2F2F2"/>
<rect x="12.5" y="29.5" width="45" height="33" rx="4.5" stroke="#CCCCCC" stroke-width="3"/>
<path d="M11 34C11 30.6863 13.6863 28 17 28H53C56.3137 28 59 30.6863 59 34V36H11V34Z" fill="#CCCCCC"/>
<path d="M18 30C19.1046 30 20 30.8954 20 32C20 33.1046 19.1046 34 18 34C16.8954 34 16 33.1046 16 32C16 30.8954 16.8954 30 18 30ZM24 30C25.1046 30 26 30.8954 26 32C26 33.1046 25.1046 34 24 34C22.8954 34 22 33.1046 22 32C22 30.8954 22.8954 30 24 30ZM30 30C31.1046 30 32 30.8954 32 32C32 33.1046 31.1046 34 30 34C28.8954 34 28 33.1046 28 32C28 30.8954 28.8954 30 30 30Z" fill="black" fill-opacity="0.18"/>
<defs>
<linearGradient id="paint0_linear_430_16770" x1="36.7819" y1="13.6003" x2="41.793" y2="55.2059" gradientUnits="userSpaceOnUse">
<stop stop-color="#FA8B38"/>
<stop offset="0.52" stop-color="#E72A57"/>
<stop offset="1" stop-color="#CC165B"/>
</linearGradient>
<linearGradient id="paint1_linear_430_16770" x1="37" y1="2" x2="37" y2="62" gradientUnits="userSpaceOnUse">
<stop stop-color="#FF862D"/>
<stop offset="1" stop-color="#B40B4A"/>
</linearGradient>
</defs>
</svg>
