<svg width="64" height="64" viewBox="0 0 64 64" fill="none" xmlns="http://www.w3.org/2000/svg">
<g clip-path="url(#clip0_391_5238)">
<path fill-rule="evenodd" clip-rule="evenodd" d="M11 44H13C14.6271 44 16 42.6485 16 41V40.0001C20.4191 40.4948 23 44.2898 23 48.8989V60.0001H8C5.22506 60.0001 2.9619 58.9877 1 57.0001C0 55.9869 0 54.7919 0 54.0001V49.0001C0 44.3911 3.5811 40.4949 8 40.0001V41C8 42.6485 9.37294 44 11 44Z" fill="#AAAAAA"/>
<path d="M10 20.0001C11.0137 20.0001 11.9386 20.3816 12.6436 21.0089H14C17.866 21.0089 22 24.0989 22 28.0001C22 30.7045 20.3128 33.0698 18 34.5137V29.0821C18 27.41 16.657 26.0547 15 26.0547H9C7.343 26.0547 6 27.41 6 29.0821V34.2559C4.17167 32.7968 3 30.5488 3 28.0001C3 27.5852 3.03749 27.1799 3.10547 26.7862C2.42095 26.0794 2 25.116 2 24.0362V20.0001H10Z" fill="#AAAAAA"/>
<path d="M15 26.0001C16.657 26.0001 18 27.328 18 29.0001V35.0001C18 36.4953 17.1772 37.9169 16 38.8975V41.0001C16 42.6721 14.657 44.0001 13 44.0001H11C9.34308 44 8 42.6721 8 41.0001V38.8975C6.82281 37.9169 6 36.4953 6 35.0001V29.0001C6 27.328 7.343 26.0001 9 26.0001H15Z" fill="#CCCCCC"/>
<path d="M55 26.0001C56.657 26.0001 58 27.328 58 29.0001V35.0001C58 36.2373 57.1332 37.4222 56 38.3506V41.0001C56 42.6721 54.657 44.0001 53 44.0001H51C49.3431 44 48 42.6721 48 41.0001V38.3506C46.8668 37.4222 46 36.2373 46 35.0001V29.0001C46 27.328 47.343 26.0001 49 26.0001H55Z" fill="#CCCCCC"/>
<path fill-rule="evenodd" clip-rule="evenodd" d="M53 44H51C49.3729 44 48 42.6485 48 41V40.0001C43.5809 40.4948 41 44.2898 41 48.8989V60.0001H56C58.7749 60.0001 61.0381 58.9877 63 57.0001C64 55.9869 64 54.7919 64 54.0001V49.0001C64 44.3911 60.4189 40.4949 56 40.0001V41C56 42.6485 54.6271 44 53 44Z" fill="#AAAAAA"/>
<path fill-rule="evenodd" clip-rule="evenodd" d="M62 28.0001C62 22.4771 57.523 18.0001 52 18.0001C46.477 18.0001 42 22.4771 42 28.0001C42 31.2722 43.5714 34.1771 46.0008 36.0015C46.0008 39.0001 48.5815 40.0001 51 40.0001H53.0005C55.4183 40.0001 58 39.0001 58.0004 36.0006C60.4291 34.1762 62 31.2716 62 28.0001ZM46 36.0001V29.0001C46 27.3431 47.343 26.0001 49 26.0001H55C56.657 26.0001 58 27.3431 58 29.0001V35.9993C56.7499 34.1258 55.2527 33.0001 53 33.0001H51C48.748 33.0001 47.249 34.1261 46 36.0001Z" fill="#AAAAAA"/>
<path fill-rule="evenodd" clip-rule="evenodd" d="M35 33H30C18.2182 33 9 42.2182 9 54V60C12.7256 63.7256 17.7777 64.0002 23.0461 64.0002H41C46.2684 64.0002 51.2744 63.7256 55 60V54C55 42.2182 46.7818 33 35 33Z" fill="#C18010"/>
<path fill-rule="evenodd" clip-rule="evenodd" d="M17 12V17C17 25 24 31 31 31.0302L34 31C40 31 48 24.4977 48 17V12H17Z" fill="#5A2807"/>
<path fill-rule="evenodd" clip-rule="evenodd" d="M35 44H30C26.7874 44 25 42 25 38V31C25 27.7874 26.7874 25 30 25H35C38.2126 25 40.0303 27.7874 40.0303 31V38C40.0303 42 38.2126 44 35 44Z" fill="#F1A031"/>
<path fill-rule="evenodd" clip-rule="evenodd" d="M34 39.0001H31C27.7874 39.0001 25 36.2127 25 33.0001V25.0001C25 21.7875 26.7874 19.3939 30 19.3939H35C38.2126 19.3939 40 21.7875 40 25.0001V33.0001C40 36.2127 37.2126 39.0001 34 39.0001Z" fill="#C18010"/>
<path fill-rule="evenodd" clip-rule="evenodd" d="M25 52C25 52 23.096 50.8839 22 50C20.0567 48.4328 19 47 19 47C17.5 45 16 41.7256 16 38C16 34.2744 17.6582 30.6347 20 28L25 23V52Z" fill="#5A2807"/>
<path fill-rule="evenodd" clip-rule="evenodd" d="M32 35C32.5 35 32.5 35 33 35C38.9531 35 44 29.0903 44 23V13C44 8.64027 40 6 36 6L28 6.00003C24 6 21 8.82354 21 13V23C21 29.4262 26 35 32 35Z" fill="#F1A031"/>
<path fill-rule="evenodd" clip-rule="evenodd" d="M34 0H30C22.5023 0 17 4.5023 17 12C17 14 18.5 15.5 19 16C19.5 16.5 20 17 24 17C28 17 32 16 35 14C38 16 40.4722 17 44 17C44.3743 17 44.6335 17.0281 45 17C46.5758 16.8798 48 15.5796 48 14V13C48 5 41.4977 0 34 0Z" fill="#5A2807"/>
<path fill-rule="evenodd" clip-rule="evenodd" d="M27 27.0001C27.4693 29.7501 30 31.0001 32.5 31.0001C35 31.0001 37.5307 29.7501 38 27.0001H27Z" fill="white"/>
</g>
<defs>
<clipPath id="clip0_391_5238">
<rect width="64" height="64" fill="white"/>
</clipPath>
</defs>
</svg>
