<svg width="64" height="64" viewBox="0 0 64 64" fill="none" xmlns="http://www.w3.org/2000/svg">
<path d="M14 0L51 0C55.4183 0 59 3.58172 59 8V56C59 60.4183 55.4183 64 51 64H14C9.58172 64 6 60.4183 6 56V8C6 3.58172 9.58172 0 14 0Z" fill="#C18010"/>
<path d="M13 0L47 0C51.4183 0 55 3.58172 55 8V56C55 60.4183 51.4183 64 47 64H13C8.58172 64 5 60.4183 5 56V8C5 3.58172 8.58173 0 13 0Z" fill="#E2A412"/>
<path d="M10 6C10 4.89543 10.8954 4 12 4H48C49.1046 4 50 4.8878 50 5.99237C50 10.19 50 20.508 50 32C50 43.7725 48.7681 54.3131 48.2379 58.304C48.1079 59.2825 47.2713 60 46.2842 60H10.4396C9.17752 60 8.21306 58.8452 8.39667 57.5965C8.97979 53.6309 10 44.8559 10 32V6Z" fill="#FFDE7A"/>
<rect x="18" y="2" width="24" height="8" rx="2" fill="#999999"/>
<path opacity="0.8" d="M27.5 20.5H43.5M27.5 33.5H43.5M27.5 47.5H43.5" stroke="#C18010" stroke-width="3" stroke-linecap="round"/>
<rect x="18" y="2" width="24" height="6" rx="2" fill="#D9D9D9"/>
<path opacity="0.7" d="M17.583 23.9981C18.0088 23.9745 18.4044 23.7704 18.6709 23.4375L22.6709 18.4375L22.7607 18.3125C23.1733 17.6741 23.0436 16.8144 22.4375 16.3291C21.831 15.8439 20.9632 15.9056 20.4307 16.4483L20.3291 16.5625L17.376 20.2539L16.5606 19.4395C15.9748 18.8537 15.0252 18.8537 14.4395 19.4395C13.8537 20.0253 13.8537 20.9748 14.4395 21.5606L16.4395 23.5606C16.7412 23.8623 17.157 24.0217 17.583 23.9981Z" fill="#C18010"/>
<circle opacity="0.7" cx="18.5" cy="33.5" r="3" stroke="#C18010" stroke-width="3"/>
<circle opacity="0.8" cx="18.5" cy="47.5" r="3" stroke="#C18010" stroke-width="3"/>
</svg>
