<svg width="64" height="64" viewBox="0 0 64 64" fill="none" xmlns="http://www.w3.org/2000/svg">
<path d="M26.6475 2C31.9404 5.51958 32.2798 11.4001 33.7842 17C34.039 17.9487 35.4118 22 40 22C44.0784 22 45.7646 19.2712 46.2744 18C46.7841 16.7292 47.0391 14.0017 47.2939 14.2285C47.5488 14.4573 56.2002 23.8646 56.2002 40.1357C56.2001 52.339 46.0196 60 32 60C17.9804 60 6.0001 52.339 6 40.1357C6 23.8646 19.7651 19.7966 26.6475 2Z" fill="url(#paint0_linear_391_4717)"/>
<path d="M26.6475 2L27.7549 0.334591C27.25 -0.00114989 26.62 -0.0897119 26.0421 0.0938027C25.4642 0.277317 25.0008 0.713092 24.7821 1.27862L26.6475 2ZM33.7842 17L31.8527 17.5189V17.5189L33.7842 17ZM46.2744 18L48.1307 18.7445L48.1307 18.7445L46.2744 18ZM47.2939 14.2285L48.63 12.7402L48.6238 12.7347L47.2939 14.2285ZM58 40.1357L60 40.1358V40.1357H58ZM41 60.627L41.6007 62.5346L41.6007 62.5346L41 60.627ZM32 62L32 64H32V62ZM23 60.627L22.3993 62.5346L22.3993 62.5346L23 60.627ZM6 40.1357H4V40.1358L6 40.1357ZM26.6475 2L25.54 3.66541C27.7207 5.11547 28.9137 7.04826 29.7536 9.39407C30.1808 10.5873 30.5089 11.8661 30.8313 13.2444C31.1458 14.5885 31.4653 16.0771 31.8527 17.5189L33.7842 17L35.7157 16.4811C35.3508 15.123 35.0638 13.7765 34.7261 12.3331C34.3964 10.9238 34.0267 9.46256 33.5195 8.04572C32.4903 5.17139 30.8671 2.4041 27.7549 0.334591L26.6475 2ZM33.7842 17L31.8527 17.5189C32.0174 18.132 32.5227 19.6953 33.7345 21.1407C34.9986 22.6485 37.0209 24 40 24V22V20C38.3908 20 37.4327 19.3259 36.7997 18.5708C36.1143 17.7533 35.8058 16.8167 35.7157 16.4811L33.7842 17ZM40 22V24C45.2123 24 47.4549 20.4296 48.1307 18.7445L46.2744 18L44.4181 17.2555C44.0743 18.1128 42.9445 20 40 20V22ZM46.2744 18L48.1307 18.7445C48.473 17.8909 48.7001 16.6631 48.8424 15.9376C48.9274 15.5038 48.9835 15.2312 49.0258 15.0789C49.0579 14.9634 49.035 15.0937 48.9245 15.2826C48.8946 15.3338 48.6616 15.7535 48.1253 16.0159C47.8004 16.1749 47.3761 16.2681 46.9112 16.1833C46.4687 16.1026 46.1532 15.8907 45.9641 15.7223L47.2939 14.2285L48.6238 12.7347C48.4188 12.5522 48.0874 12.3318 47.6289 12.2482C47.148 12.1605 46.7078 12.2563 46.3669 12.4231C45.7986 12.7012 45.5335 13.1574 45.4712 13.264C45.2961 13.5637 45.2075 13.8797 45.1718 14.0079C45.0787 14.3429 44.9914 14.7891 44.9171 15.1677C44.7408 16.067 44.5854 16.8384 44.4181 17.2555L46.2744 18ZM47.2939 14.2285L45.9579 15.7168C46.0858 15.8316 56 24.7352 56 40.1357H58H60C60 22.9939 49.0119 13.0831 48.6299 12.7402L47.2939 14.2285ZM58 40.1357L56 40.1357C55.9999 48.5051 49.5911 55.825 40.3993 58.7193L41 60.627L41.6007 62.5346C51.9777 59.2671 59.9999 50.7076 60 40.1358L58 40.1357ZM41 60.627L40.3993 58.7193C37.769 59.5475 34.9342 60 32 60V62V64C35.3447 64 38.5845 63.4843 41.6007 62.5346L41 60.627ZM32 62L32 60C29.0658 60 26.231 59.5475 23.6007 58.7193L23 60.627L22.3993 62.5346C25.4155 63.4843 28.6553 64 32 64L32 62ZM23 60.627L23.6007 58.7193C14.4089 55.825 8.00007 48.5051 8 40.1357L6 40.1357L4 40.1358C4.00008 50.7076 12.0222 59.2671 22.3993 62.5346L23 60.627ZM6 40.1357H8C8 32.7053 11.0767 28.0745 15.2929 22.9038C19.5111 17.7306 24.9301 11.9856 28.5128 2.72138L26.6475 2L24.7821 1.27862C21.4824 9.81103 16.5778 14.9983 12.1928 20.376C7.80581 25.7562 4 31.295 4 40.1357H6Z" fill="url(#paint1_linear_391_4717)"/>
<path d="M32 35C37.3334 40.4588 44 46.3729 44 52.1729C43.9999 58.4276 39.9998 64 32 64C24.0002 64 20.0001 58.4276 20 52.1729C20 45.9179 26.6667 40.4588 32 35Z" fill="#FFCC33"/>
<defs>
<linearGradient id="paint0_linear_391_4717" x1="31.3662" y1="13.6003" x2="37.2298" y2="54.9785" gradientUnits="userSpaceOnUse">
<stop stop-color="#FA8B38"/>
<stop offset="0.52" stop-color="#E72A57"/>
<stop offset="1" stop-color="#CC165B"/>
</linearGradient>
<linearGradient id="paint1_linear_391_4717" x1="32" y1="2" x2="32" y2="62" gradientUnits="userSpaceOnUse">
<stop stop-color="#FF862D"/>
<stop offset="1" stop-color="#B40B4A"/>
</linearGradient>
</defs>
</svg>
