<svg width="96" height="96" viewBox="0 0 96 96" fill="none" xmlns="http://www.w3.org/2000/svg">
<path d="M59.7141 75H36.2859C30.6052 75 26 70.3948 26 64.7141C26 60.698 28.3374 57.0493 31.9856 55.3703L42.8004 50.393C43.7347 49.963 44.3333 49.0285 44.3333 48C44.3333 46.9715 43.7347 46.037 42.8004 45.607L31.9856 40.6297C28.3374 38.9507 26 35.302 26 31.2859C26 25.6052 30.6052 21 36.2859 21H59.7141C65.3949 21 70 25.6051 70 31.2859C70 35.3019 67.6626 38.9506 64.0144 40.6297L53.1996 45.607C52.2653 46.037 51.6667 46.9715 51.6667 48C51.6667 49.0285 52.2653 49.963 53.1996 50.393L64.0144 55.3703C67.6626 57.0493 70 60.698 70 64.7141C70 70.3948 65.3948 75 59.7141 75Z" fill="#ADC2FC"/>
<path fill-rule="evenodd" clip-rule="evenodd" d="M37.1326 36.5816L47.9999 46L58.8674 36.5816C60.2944 35.3448 59.4197 33 57.5313 33H38.4687C36.5802 33 35.7055 35.3448 37.1326 36.5816ZM54.4493 59.4627L65 69.2174L60.2501 74.587L48.0001 76L35.5556 74.3043L31 69.2174L41.5508 59.4626C45.1915 56.0966 50.8086 56.0966 54.4493 59.4627Z" fill="url(#paint0_linear_401_12819)"/>
<path fill-rule="evenodd" clip-rule="evenodd" d="M59.7141 27H36.2859C33.9189 27 32 28.9189 32 31.2859C32 32.9593 32.9739 34.4797 34.4941 35.1793L45.3088 40.1565C46.3422 40.6321 47.2503 41.296 48 42.0964C48.7497 41.296 49.6578 40.6321 50.6911 40.1565L61.506 35.1792C63.0261 34.4796 64 32.9592 64 31.2859C64 28.9188 62.0812 27 59.7141 27ZM48 53.9036C47.2503 54.704 46.3422 55.3679 45.3088 55.8435L34.4941 60.8207C32.9739 61.5203 32 63.0407 32 64.7141C32 67.0811 33.9189 69 36.2859 69H59.7141C62.0811 69 64 67.0811 64 64.7141C64 63.0407 63.0261 61.5203 61.5059 60.8207L50.6912 55.8435C49.6578 55.3679 48.7497 54.704 48 53.9036ZM36.2859 75H59.7141C65.3948 75 70 70.3948 70 64.7141C70 60.698 67.6626 57.0493 64.0144 55.3703L53.1996 50.393C52.2653 49.963 51.6667 49.0285 51.6667 48C51.6667 46.9715 52.2653 46.037 53.1996 45.607L64.0144 40.6297C67.6626 38.9506 70 35.3019 70 31.2859C70 25.6051 65.3949 21 59.7141 21H36.2859C30.6052 21 26 25.6052 26 31.2859C26 35.302 28.3374 38.9507 31.9856 40.6297L42.8004 45.607C43.7347 46.037 44.3333 46.9715 44.3333 48C44.3333 49.0285 43.7347 49.963 42.8004 50.393L31.9856 55.3703C28.3374 57.0493 26 60.698 26 64.7141C26 70.3948 30.6052 75 36.2859 75Z" fill="url(#paint1_linear_401_12819)"/>
<path d="M22 19C22 17.3431 23.3431 16 25 16H71C72.6569 16 74 17.3431 74 19V21C74 22.6569 72.6569 24 71 24H25C23.3431 24 22 22.6569 22 21V19Z" fill="#C18010"/>
<path d="M22 75C22 73.3431 23.3431 72 25 72H71C72.6569 72 74 73.3431 74 75V77C74 78.6569 72.6569 80 71 80H25C23.3431 80 22 78.6569 22 77V75Z" fill="#C18010"/>
<path d="M22 19C22 17.3431 23.3431 16 25 16H57C58.6569 16 60 17.3431 60 19V21C60 22.6569 58.6569 24 57 24H25C23.3431 24 22 22.6569 22 21V19Z" fill="#E2A412"/>
<path d="M22 75C22 73.3431 23.3431 72 25 72H57C58.6569 72 60 73.3431 60 75V77C60 78.6569 58.6569 80 57 80H25C23.3431 80 22 78.6569 22 77V75Z" fill="#E2A412"/>
<defs>
<linearGradient id="paint0_linear_401_12819" x1="27.9643" y1="53.3802" x2="68.0357" y2="53.3802" gradientUnits="userSpaceOnUse">
<stop stop-color="#8FABF9"/>
<stop offset="1" stop-color="#557FF3"/>
</linearGradient>
<linearGradient id="paint1_linear_401_12819" x1="26" y1="48" x2="70" y2="48" gradientUnits="userSpaceOnUse">
<stop offset="0.39" stop-color="#ADC2FC"/>
<stop offset="1" stop-color="#8FABF9"/>
</linearGradient>
</defs>
</svg>
