<svg width="64" height="60" viewBox="0 0 64 60" fill="none" xmlns="http://www.w3.org/2000/svg">
<path d="M32 60V59.9326C32.6611 59.9761 33.3279 60 34 60C50.5685 60 64 46.5685 64 30C64 13.4315 50.5685 0 34 0C33.3279 0 32.6611 0.0248413 32 0.0683594V0H29V0.417969C14.8117 2.79857 4 15.1352 4 30C4 44.8649 14.8116 57.2025 29 59.583V60H32Z" fill="#2B55CA"/>
<path d="M30 60C46.5685 60 60 46.5685 60 30C60 13.4315 46.5685 0 30 0C13.4315 0 0 13.4315 0 30C0 46.5685 13.4315 60 30 60Z" fill="#557FF3"/>
<path d="M30 54C43.2548 54 54 43.2548 54 30C54 16.7452 43.2548 6 30 6C16.7452 6 6 16.7452 6 30C6 43.2548 16.7452 54 30 54Z" fill="#FFF7E0"/>
<path d="M30 14C31.1046 14 32 13.1046 32 12V10C32 8.89543 31.1046 8 30 8C28.8954 8 28 8.89543 28 10V12C28 13.1046 28.8954 14 30 14ZM19.2676 15.4111C19.8199 16.3677 21.0434 16.6958 22 16.1436C22.9564 15.5914 23.2843 14.3686 22.7324 13.4121L21.7324 11.6797C21.1802 10.7231 19.9566 10.3951 19 10.9473C18.0434 11.4995 17.7154 12.7231 18.2676 13.6797L19.2676 15.4111ZM38 16.1436C38.9566 16.6958 40.1801 16.3677 40.7324 15.4111L41.7324 13.6797C42.2847 12.7231 41.9566 11.4995 41 10.9473C40.0434 10.395 38.8199 10.7231 38.2676 11.6797L37.2676 13.4111C36.7153 14.3677 37.0434 15.5913 38 16.1436ZM13.4111 22.7324C14.3677 23.2847 15.5913 22.9565 16.1436 22C16.6958 21.0435 16.3685 19.8199 15.4121 19.2676L13.6797 18.2676C12.7231 17.7154 11.4995 18.0434 10.9473 19C10.3951 19.9566 10.7231 21.1802 11.6797 21.7324L13.4111 22.7324ZM43.8564 22C44.4087 22.9564 45.6314 23.2843 46.5879 22.7324L48.3203 21.7324C49.2768 21.1802 49.6049 19.9566 49.0527 19C48.5005 18.0435 47.2769 17.7154 46.3203 18.2676L44.5879 19.2676C43.6314 19.8199 43.3042 21.0435 43.8564 22ZM12 32C13.1046 32 14 31.1046 14 30C14 28.8954 13.1046 28 12 28H10C8.89543 28 8 28.8954 8 30C8 31.1046 8.89543 32 10 32H12ZM50 32C51.1046 32 52 31.1046 52 30C52 28.8954 51.1046 28 50 28H48C46.8954 28 46 28.8954 46 30C46 31.1046 46.8954 32 48 32H50ZM10.9473 41C11.4995 41.9566 12.7231 42.2846 13.6797 41.7324L15.4111 40.7324C16.3677 40.1801 16.6958 38.9566 16.1436 38C15.5914 37.0436 14.3686 36.7157 13.4121 37.2676L11.6797 38.2676C10.7231 38.8198 10.3951 40.0434 10.9473 41ZM46.3203 41.7324C47.2769 42.2846 48.5005 41.9565 49.0527 41C49.6049 40.0434 49.2768 38.8198 48.3203 38.2676L46.5879 37.2676C45.6314 36.7157 44.4087 37.0436 43.8564 38C43.3042 38.9565 43.6314 40.1801 44.5879 40.7324L46.3203 41.7324ZM19 49.0527C19.9566 49.6049 21.1802 49.2769 21.7324 48.3203L22.7324 46.5879C23.2843 45.6314 22.9564 44.4086 22 43.8564C21.0435 43.3042 19.8199 43.6315 19.2676 44.5879L18.2676 46.3203C17.7154 47.2769 18.0434 48.5005 19 49.0527ZM38.2676 48.3203C38.8199 49.2769 40.0434 49.605 41 49.0527C41.9566 48.5004 42.2847 47.2769 41.7324 46.3203L40.7324 44.5889C40.1801 43.6323 38.9566 43.3042 38 43.8564C37.0434 44.4087 36.7153 45.6323 37.2676 46.5889L38.2676 48.3203ZM30 52C31.1046 52 32 51.1046 32 50V48C32 46.8954 31.1046 46 30 46C28.8954 46 28 46.8954 28 48V50C28 51.1046 28.8954 52 30 52Z" fill="#FFD65C"/>
<path d="M30 54C30.335 54 30.6683 53.9921 31 53.9785C18.2089 53.4542 8 42.9198 8 30C8 17.0802 18.209 6.54676 31 6.02246C30.6683 6.00887 30.335 6 30 6C16.7452 6 6 16.7452 6 30C6 43.2548 16.7452 54 30 54Z" fill="#FFE8A3"/>
<path d="M30 29.9998L14 43" stroke="#E46F4F" stroke-width="2" stroke-linecap="round"/>
<path d="M31.8559 32.3569L39.9793 24.8831C40.8098 24.119 40.912 22.8443 40.2138 21.9576C39.5157 21.0709 38.2525 20.8713 37.3149 21.4994L28.1441 27.6428L31.8559 32.3569Z" fill="#3969EF"/>
<path d="M28.1217 32.3393C29.4132 33.3765 31.3009 33.1705 32.3385 31.8793C33.376 30.5876 33.1702 28.6991 31.8785 27.6615C31.8024 27.6005 31.724 27.5441 31.6441 27.4916L16.4976 16.4672C15.5924 15.8084 14.3287 15.9761 13.6275 16.849C12.9264 17.722 13.035 18.9919 13.8736 19.7338L27.9117 32.1547C27.978 32.2188 28.0484 32.2804 28.1217 32.3393Z" fill="#2B55CA"/>
</svg>
