<svg width="64" height="64" viewBox="0 0 64 64" fill="none" xmlns="http://www.w3.org/2000/svg">
<rect x="9.09375" width="58" height="39" rx="6.2963" transform="rotate(15 9.09375 0)" fill="#876ECB"/>
<rect x="7.02295" y="7.72754" width="58" height="8" transform="rotate(15 7.02295 7.72754)" fill="#6B4EBA"/>
<rect y="21" width="58" height="39" rx="6.2963" fill="#F9BE1A"/>
<path d="M6 29C6 27.8954 6.89543 27 8 27H16C17.1046 27 18 27.8954 18 29V34C18 35.1046 17.1046 36 16 36H8C6.89543 36 6 35.1046 6 34V29Z" fill="#FFE8A3"/>
<path d="M50.5 30C51.3284 30 52 29.3284 52 28.5C52 27.6716 51.3284 27 50.5 27L35.5 27C34.6716 27 34 27.6716 34 28.5C34 29.3284 34.6716 30 35.5 30L50.5 30ZM13.5 49C14.3284 49 15 48.3284 15 47.5C15 46.6716 14.3284 46 13.5 46H7.5C6.67157 46 6 46.6716 6 47.5C6 48.3284 6.67157 49 7.5 49H13.5ZM25.5 49C26.3284 49 27 48.3284 27 47.5C27 46.6716 26.3284 46 25.5 46H19.5C18.6716 46 18 46.6716 18 47.5C18 48.3284 18.6716 49 19.5 49H25.5ZM37.5 49C38.3284 49 39 48.3284 39 47.5C39 46.6716 38.3284 46 37.5 46H31.5C30.6716 46 30 46.6716 30 47.5C30 48.3284 30.6716 49 31.5 49H37.5ZM49.5 49C50.3284 49 51 48.3284 51 47.5C51 46.6716 50.3284 46 49.5 46H43.5C42.6716 46 42 46.6716 42 47.5C42 48.3284 42.6716 49 43.5 49H49.5ZM22.5 55C23.3284 55 24 54.3284 24 53.5C24 52.6716 23.3284 52 22.5 52H7.5C6.67157 52 6 52.6716 6 53.5C6 54.3284 6.67157 55 7.5 55H22.5Z" fill="#E2A412"/>
</svg>
