<svg width="64" height="64" viewBox="0 0 64 64" fill="none" xmlns="http://www.w3.org/2000/svg">
<rect x="2" y="2" width="60" height="60" rx="13.3981" fill="#DE5833"/>
<path fill-rule="evenodd" clip-rule="evenodd" d="M38.3718 57.204C37.1838 54.8943 36.0479 52.7693 35.3427 51.3636C33.4685 47.6104 31.5848 42.319 32.4414 38.9066C32.5976 38.2866 30.6761 15.9472 29.3177 15.2278C27.8079 14.4233 25.9503 13.1469 24.2512 12.8629C23.3891 12.725 22.2588 12.7903 21.3752 12.9093C21.2181 12.9305 21.2116 13.2128 21.3617 13.2636C21.9418 13.4602 22.6462 13.8014 23.0614 14.3174C23.1399 14.415 23.0345 14.5686 22.9092 14.5732C22.5179 14.5877 21.808 14.7518 20.8714 15.5473C20.763 15.6393 20.853 15.8102 20.9924 15.7826C23.0054 15.3844 25.0611 15.5806 26.2726 16.6817C26.3512 16.7532 26.3101 16.8814 26.2076 16.9093C15.6942 19.7663 17.7754 28.9117 20.5742 40.1347C23.2113 50.7093 24.4621 54.88 24.6128 55.3751C24.6229 55.4084 24.6415 55.4339 24.6719 55.4507C26.8388 56.6398 38.2323 57.3619 37.7492 56.0002L38.3718 57.204Z" fill="#DDDDDD"/>
<path fill-rule="evenodd" clip-rule="evenodd" d="M58.068 31.8546C58.068 46.2515 46.397 57.9225 32.0001 57.9225C17.6032 57.9225 5.93213 46.2515 5.93213 31.8546C5.93213 17.4576 17.6032 5.78662 32.0001 5.78662C46.397 5.78662 58.068 17.4576 58.068 31.8546ZM25.9219 54.9001C25.1312 52.4431 23.1117 45.9538 21.1946 38.0954C21.1283 37.8238 21.0622 37.5535 20.9963 37.2846L20.9947 37.2778C18.5878 27.447 16.622 19.4174 27.3961 16.8949C27.4946 16.8718 27.5428 16.7541 27.4776 16.6767C26.2414 15.2102 23.9256 14.7295 20.9974 15.7397C20.8773 15.7812 20.773 15.6601 20.8476 15.5572C21.4218 14.7658 22.5439 14.1572 23.0979 13.8905C23.2124 13.8353 23.2054 13.6677 23.0842 13.6297C22.7218 13.5163 22.1049 13.3427 21.4109 13.2307C21.2467 13.2042 21.2319 12.9228 21.3967 12.9006C25.5479 12.3421 29.8829 13.5884 32.0582 16.3286C32.0787 16.3544 32.1083 16.3724 32.1405 16.3794C40.1063 18.09 40.6767 30.6823 39.759 31.2559C39.5781 31.3689 38.9983 31.304 38.2335 31.2185C35.134 30.8717 28.9964 30.185 34.062 39.6256C34.112 39.7188 34.0458 39.8423 33.9412 39.8585C31.127 40.2961 34.7487 49.1606 37.4291 55.0611C47.973 52.6041 55.8278 43.1466 55.8278 31.8546C55.8278 18.6949 45.1598 8.02684 32.0001 8.02684C18.8404 8.02684 8.17234 18.6949 8.17234 31.8546C8.17234 42.9137 15.7064 52.213 25.9219 54.9001Z" fill="white"/>
<path d="M40.9986 43.7007C40.3922 43.4197 38.0605 45.0919 36.5129 46.3755C36.1895 45.9179 35.5797 45.5852 34.204 45.8244C33 46.0338 32.3354 46.3241 32.0388 46.8246C30.1384 46.1041 26.9414 44.9922 26.1691 46.066C25.3248 47.2399 26.3801 52.7929 27.5014 53.5139C28.0868 53.8903 30.8871 52.0903 32.3495 50.8491C32.5854 51.1815 32.9652 51.3718 33.7461 51.3537C34.9271 51.3263 36.8426 51.0514 37.1399 50.5015C37.1579 50.4681 37.1735 50.4285 37.1867 50.3836C38.6898 50.9454 41.3351 51.5399 41.9261 51.4511C43.4662 51.2198 41.7116 44.031 40.9986 43.7007Z" fill="#3CA82B"/>
<path d="M36.6547 46.5399C36.7184 46.6536 36.7697 46.7736 36.8133 46.8955C37.0276 47.4948 37.3767 49.4012 37.1127 49.8721C36.8487 50.343 35.134 50.5704 34.0762 50.5886C33.0185 50.6069 32.7804 50.22 32.5661 49.6208C32.3947 49.1414 32.3103 48.0142 32.3123 47.3689C32.269 46.4116 32.6187 46.075 34.2354 45.8134C35.4317 45.6198 36.0642 45.845 36.4294 46.2303C38.1278 44.9626 40.9617 43.1737 41.2381 43.5006C42.6163 45.1309 42.7905 49.0118 42.4921 50.5732C42.3945 51.0836 37.831 50.0674 37.831 49.5169C37.831 47.2311 37.2378 46.6041 36.6547 46.5399Z" fill="#4CBA3C"/>
<path d="M26.658 45.8261C27.0318 45.2346 30.0628 45.9702 31.7266 46.7107C31.7266 46.7107 31.3847 48.2597 31.9291 50.0846C32.0883 50.6184 28.1012 52.9943 27.5808 52.5856C26.9793 52.1131 25.8724 47.0695 26.658 45.8261Z" fill="#4CBA3C"/>
<path fill-rule="evenodd" clip-rule="evenodd" d="M28.126 33.8099C28.3712 32.7435 29.5136 30.7341 33.593 30.7829C35.6553 30.7743 38.2171 30.782 39.9156 30.5891C42.4399 30.3023 44.3137 29.6917 45.5623 29.2158C47.3282 28.5421 47.9548 28.6923 48.1745 29.0955C48.416 29.5384 48.1315 30.3032 47.5145 31.0072C46.3359 32.3521 44.2171 33.3941 40.4751 33.7034C36.733 34.0127 34.2539 33.0089 33.1868 34.6432C32.7265 35.348 33.0824 37.0092 36.7012 37.5324C41.5913 38.2381 45.6074 36.682 46.1036 37.6218C46.5999 38.5616 43.7414 40.4738 38.8434 40.5138C33.9453 40.5538 30.886 38.7989 29.8011 37.9266C28.4246 36.8198 27.8086 35.2057 28.126 33.8099Z" fill="#FFCC33"/>
<g opacity="0.8">
<path d="M34.3637 22.1493C34.6369 21.702 35.2428 21.3567 36.2342 21.3567C37.2256 21.3567 37.6921 21.7512 38.015 22.1911C38.0806 22.2806 37.9811 22.386 37.8793 22.3419C37.8548 22.3313 37.8299 22.3205 37.8047 22.3095C37.4421 22.1511 36.9969 21.9567 36.2342 21.9458C35.4184 21.9342 34.9041 22.1385 34.5802 22.3146C34.471 22.3739 34.299 22.2554 34.3637 22.1493Z" fill="#14307E"/>
<path d="M23.2017 22.7217C24.1644 22.3194 24.921 22.3714 25.4559 22.4979C25.5685 22.5245 25.6468 22.4034 25.5567 22.3307C25.1415 21.9958 24.2124 21.5801 23.0005 22.032C21.9195 22.4351 21.4099 23.2726 21.4069 23.8233C21.4062 23.953 21.6732 23.964 21.7422 23.8542C21.9288 23.5574 22.239 23.124 23.2017 22.7217Z" fill="#14307E"/>
<path fill-rule="evenodd" clip-rule="evenodd" d="M37.0763 28.2693C36.2252 28.2693 35.5349 27.5809 35.5349 26.7335C35.5349 25.8862 36.2252 25.1977 37.0763 25.1977C37.9275 25.1977 38.6178 25.8862 38.6178 26.7335C38.6178 27.5809 37.9275 28.2693 37.0763 28.2693ZM38.162 26.2248C38.162 26.0054 37.9823 25.8276 37.7629 25.8276C37.5435 25.8276 37.3657 26.0054 37.3638 26.2248C37.3638 26.4442 37.5435 26.6219 37.7629 26.6219C37.9842 26.6219 38.162 26.4442 38.162 26.2248Z" fill="#14307E"/>
<path fill-rule="evenodd" clip-rule="evenodd" d="M26.8634 27.7964C26.8634 28.7856 26.0596 29.5875 25.0666 29.5875C24.0756 29.5875 23.2699 28.7856 23.2699 27.7964C23.2699 26.8072 24.0756 26.0053 25.0666 26.0053C26.0577 26.0053 26.8634 26.8072 26.8634 27.7964ZM26.3338 27.2025C26.3338 26.9472 26.1258 26.7391 25.8686 26.7391C25.6132 26.7391 25.4052 26.9453 25.4033 27.2025C25.4033 27.4579 25.6113 27.6659 25.8686 27.6659C26.1258 27.6659 26.3338 27.4579 26.3338 27.2025Z" fill="#14307E"/>
</g>
</svg>
