<svg width="64" height="64" viewBox="0 0 64 64" fill="none" xmlns="http://www.w3.org/2000/svg">
<path d="M21 22H52C56.4183 22 60 25.5817 60 30V53C60 57.4183 56.4183 61 52 61H21C16.5817 61 13 57.4183 13 53V30C13 25.5817 16.5817 22 21 22Z" fill="#4CBA3C"/>
<path d="M12 22H47C51.4183 22 55 25.5817 55 30V53C55 57.4183 51.4183 61 47 61H12C7.58172 61 4 57.4183 4 53V30C4 25.5817 7.58172 22 12 22Z" fill="#7BD66D"/>
<path d="M4 31H55V35H4V31Z" fill="#63C853"/>
<path d="M8 20H60C62.2091 20 64 21.7909 64 24V27C64 29.2091 62.2091 31 60 31H8C5.79086 31 4 29.2091 4 27V24C4 21.7909 5.79086 20 8 20Z" fill="#4CBA3C"/>
<path d="M4 20H56C58.2091 20 60 21.7909 60 24V27C60 29.2091 58.2091 31 56 31H4C1.79086 31 -3.8147e-06 29.2091 -3.8147e-06 27V24C-3.8147e-06 21.7909 1.79086 20 4 20Z" fill="#7BD66D"/>
<path d="M40.5 5.5C43.8137 5.5 46.5 8.18629 46.5 11.5C46.5 14.8137 43.8137 17.5 40.5 17.5H34.5V11.5C34.5 8.18629 37.1863 5.5 40.5 5.5Z" stroke="#399F29" stroke-width="5"/>
<path d="M23.5 5.5C20.1863 5.5 17.5 8.18629 17.5 11.5C17.5 14.8137 20.1863 17.5 23.5 17.5H29.5V11.5C29.5 8.18629 26.8137 5.5 23.5 5.5Z" stroke="#399F29" stroke-width="5"/>
<rect x="22" y="20" width="10" height="11" fill="#399F29"/>
<path d="M22 31H32L35 33V61H25V33L22 31Z" fill="#399F29"/>
</svg>
