<svg width="64" height="64" viewBox="0 0 64 64" fill="none" xmlns="http://www.w3.org/2000/svg">
<path d="M38 1.00586C38.1663 1.00266 38.3329 1 38.5 1C52.5833 1 64 12.4167 64 26.5C64 40.5833 52.5833 52 38.5 52C38.3329 52 38.1663 51.9964 38 51.9932V52H34V51.6035C22.063 49.4781 13 39.0477 13 26.5C13 13.9522 22.0629 3.52089 34 1.39551V1H38V1.00586ZM38.5 7C27.7304 7 19 15.7304 19 26.5C19 37.2696 27.7304 46 38.5 46C49.2696 46 58 37.2696 58 26.5C58 15.7304 49.2696 7 38.5 7Z" fill="url(#paint0_radial_391_5141)"/>
<circle opacity="0.3" cx="19.5" cy="19.5" r="19.5" transform="matrix(-1 0 0 1 56 7)" fill="#3969EF"/>
<path opacity="0.9" d="M21.4844 30.3582C23.4696 21.5661 31.3277 14.9999 40.7197 14.9998C43.4357 14.9998 46.0234 15.5496 48.3779 16.5427C45.5346 13.1546 41.2692 10.9998 36.5 10.9998C27.9397 10.9998 21.0002 17.9395 21 26.4998C21 27.8317 21.1684 29.1247 21.4844 30.3582Z" fill="white"/>
<path d="M34.4998 1C48.5831 1 59.9998 12.4167 59.9998 26.5C59.9998 40.5833 48.5831 52 34.4998 52C29.4172 52 24.6826 50.5119 20.7059 47.9492L9.82797 58.8281L9.67856 58.9707C8.10833 60.389 5.68485 60.3413 4.17172 58.8281C2.65859 57.315 2.61088 54.8915 4.02914 53.3213L4.17172 53.1719L14.7332 42.6094C11.1498 38.2177 8.99985 32.6102 8.99985 26.5C8.99985 12.4167 20.4166 1 34.4998 1ZM34.4998 7C23.7303 7 14.9998 15.7304 14.9998 26.5C14.9998 31.9879 17.2673 36.9457 20.9159 40.4893C21.243 40.668 21.551 40.8949 21.828 41.1719C21.9858 41.3297 22.1268 41.4982 22.2528 41.6738C25.6004 44.3791 29.8606 46 34.4998 46C45.2694 46 53.9998 37.2696 53.9998 26.5C53.9998 15.7304 45.2694 7 34.4998 7Z" fill="url(#paint1_radial_391_5141)"/>
<path d="M9.58579 45.4142C10.3668 44.6332 11.6332 44.6332 12.4142 45.4142L17.5858 50.5858C18.3668 51.3668 18.3668 52.6332 17.5858 53.4142L9.75 61.25C7.54087 63.4591 3.95914 63.4591 1.75002 61.25C-0.459082 59.0408 -0.459079 55.4592 1.75003 53.25L9.58579 45.4142Z" fill="#888888"/>
<defs>
<radialGradient id="paint0_radial_391_5141" cx="0" cy="0" r="1" gradientUnits="userSpaceOnUse" gradientTransform="translate(33.1316 10.9407) rotate(62.1191) scale(44.0065 43.3651)">
<stop stop-color="#DDDDDD"/>
<stop offset="1" stop-color="#888888"/>
</radialGradient>
<radialGradient id="paint1_radial_391_5141" cx="0" cy="0" r="1" gradientUnits="userSpaceOnUse" gradientTransform="translate(25.5 12.5) rotate(62.9279) scale(50.5371 48.824)">
<stop stop-color="#E5E5E5"/>
<stop offset="1" stop-color="#CCCCCC"/>
</radialGradient>
</defs>
</svg>
