<svg width="640" height="640" viewBox="0 0 640 640" fill="none" xmlns="http://www.w3.org/2000/svg">
<path d="M338.855 639.401C340.784 639.445 342.712 639.446 344.641 639.401H345L345.014 639.394C363.49 638.907 381.884 634.294 398.771 625.553L444.115 602.083C567.225 538.363 643.111 409.908 639.509 271.331L636.975 173.844C635.347 111.232 582.376 64.9916 523.386 67.5002H480L469.322 74.4407C462.23 72.6462 455.64 68.8811 450.406 63.3655L426.668 38.346C403.149 13.5576 371.583 1.15546 340.014 1.21704L340 1.20142H304.748C303.514 7.11634 298.002 34.747 292.551 81.2014H398.404L414.134 97.7795C437.631 122.544 473.18 131.765 505.752 121.544L508.54 120.669L572.127 137.403C580.984 147.356 586.608 160.414 586.991 175.144L589.525 272.63C592.63 392.058 527.23 502.763 421.132 557.679L417.808 559.4L294.925 559.401C297.752 585.352 301.065 612.031 304.918 639.401H338.855Z" fill="url(#paint0_linear_395_3577)"/>
<path d="M180 100L300 30L420 100L500 90L560 130L570 290L500 490L300 615L125 530L30 355V155L65 105L180 100Z" fill="url(#paint1_linear_395_3577)"/>
<path d="M301.03 610.622C305.592 610.186 310.065 608.709 314.076 606.202L491.065 495.584C496.848 491.969 501.227 486.492 503.48 480.055L567.996 295.727C569.318 291.947 569.871 287.941 569.621 283.944L560.927 144.842C560.343 135.49 555.423 126.948 547.627 121.751L509.287 96.1914C503.296 92.1976 496.069 90.4918 488.924 91.3848L430.07 98.7412C423.538 99.5576 416.919 98.2026 411.233 94.8857L315.116 38.8174C310.097 35.8895 304.439 34.5362 298.83 34.7549C286.608 113.467 263.591 321.256 301.03 610.622Z" fill="url(#paint2_linear_395_3577)"/>
<path d="M239.413 625.4C275.235 644.063 317.9 644.12 353.771 625.553L399.115 602.083C522.225 538.363 598.111 409.908 594.509 271.332L591.975 173.844C590.089 101.322 519.32 50.7606 450.102 72.482L445.781 73.8384C431.427 78.3428 415.761 74.279 405.406 63.3658L381.668 38.3462C335.333 -10.4884 257.766 -11.2535 210.478 36.6577L183.388 64.104C173.052 74.5754 157.694 78.3216 143.698 73.7847C74.4985 51.3524 3.24676 101.987 1.6709 174.714L0 251.831L0 300.763C6.94851 427.636 80.2203 542.461 194.109 601.796L239.413 625.4ZM330.788 581.149C309.372 592.233 283.901 592.199 262.516 581.057L217.212 557.454C111.96 502.618 46.9579 392.793 49.5283 274.141L51.6592 175.797C52.5095 136.563 90.9477 109.247 128.279 121.348C160.261 131.716 195.356 123.155 218.974 99.2271L246.063 71.7808C273.502 43.9809 318.51 44.4247 345.396 72.7603L369.134 97.7798C392.631 122.544 428.18 131.766 460.752 121.544L465.072 120.188C502.601 108.412 540.969 135.825 541.991 175.144L544.525 272.63C547.63 392.058 482.23 502.764 376.132 557.679L330.788 581.149Z" fill="url(#paint3_linear_395_3577)"/>
<path d="M304.885 639.167C321.713 638.061 338.369 633.526 353.771 625.554L399.115 602.084C522.226 538.363 598.111 409.909 594.509 271.332L591.975 173.845C590.089 101.322 519.321 50.7609 450.102 72.4824L445.781 73.8389C431.427 78.3433 415.761 74.2795 405.406 63.3662L381.668 38.3467C360.548 16.0876 332.94 3.81787 304.668 1.58984C303.626 6.62891 300.281 23.5674 296.401 51.2275C314.288 51.5233 332.068 58.7144 345.396 72.7607L369.134 97.7803C392.631 122.545 428.18 131.766 460.752 121.545L465.072 120.188C502.601 108.412 540.969 135.825 541.991 175.145L544.525 272.631C547.63 392.059 482.231 502.764 376.132 557.68L330.788 581.149C320.609 586.418 309.513 589.173 298.376 589.419C300.349 605.734 302.514 622.32 304.885 639.167Z" fill="url(#paint4_linear_395_3577)"/>
<defs>
<linearGradient id="paint0_linear_395_3577" x1="342.494" y1="639.454" x2="342.494" y2="1.20296" gradientUnits="userSpaceOnUse">
<stop stop-color="#288419"/>
<stop offset="1" stop-color="#1A690D"/>
</linearGradient>
<linearGradient id="paint1_linear_395_3577" x1="300" y1="615" x2="300" y2="30" gradientUnits="userSpaceOnUse">
<stop stop-color="#7BD66D"/>
<stop offset="1" stop-color="#63C853"/>
</linearGradient>
<linearGradient id="paint2_linear_395_3577" x1="425.118" y1="34.7321" x2="425.118" y2="610.622" gradientUnits="userSpaceOnUse">
<stop stop-color="#4CBA3C"/>
<stop offset="1" stop-color="#4CBA3C"/>
</linearGradient>
<linearGradient id="paint3_linear_395_3577" x1="297.316" y1="639.438" x2="297.316" y2="1.21646" gradientUnits="userSpaceOnUse">
<stop stop-color="#4CBA3C"/>
<stop offset="1" stop-color="#399F29"/>
</linearGradient>
<linearGradient id="paint4_linear_395_3577" x1="445.516" y1="639.167" x2="445.516" y2="1.58984" gradientUnits="userSpaceOnUse">
<stop stop-color="#399F29"/>
<stop offset="1" stop-color="#288419"/>
</linearGradient>
</defs>
</svg>
