<svg width="65" height="64" viewBox="0 0 65 64" fill="none" xmlns="http://www.w3.org/2000/svg">
<rect x="10.1193" y="20.5688" width="55.9319" height="36.7875" rx="6.13124" transform="rotate(8 10.1193 20.5688)" fill="#6B4EBA"/>
<rect x="4.99951" y="14.2124" width="55.9476" height="36.7875" rx="6.13124" fill="#DE5833"/>
<path d="M6.09481 7.09944C2.75065 7.62932 0.469056 10.7697 0.998504 14.1139L4.83512 38.3373C5.36482 41.6817 8.50522 43.9631 11.8496 43.4336L55.7544 36.4798C59.0988 35.95 61.3804 32.8098 60.8507 29.4653L57.0141 5.2419C56.4842 1.89771 53.3439 -0.383942 49.9997 0.145601L6.09481 7.09944Z" fill="#FFCC33"/>
<circle cx="18.6147" cy="24.9033" r="10.3465" transform="rotate(-8.99999 18.6147 24.9033)" fill="#C18010"/>
<path d="M16.9964 14.6842C22.6402 13.7904 27.9404 17.6411 28.8343 23.2849C29.2433 25.8676 28.6552 28.3763 27.3599 30.4257C25.6384 27.6055 22.3338 25.9508 18.8678 26.4998C15.4015 27.0488 12.7681 29.6436 12.0025 32.8581C10.1378 31.3093 8.80473 29.1044 8.39568 26.522C7.50178 20.8782 11.3525 15.5781 16.9964 14.6842Z" fill="#E2A412"/>
<circle cx="18.2104" cy="22.3485" r="4.20325" transform="rotate(-8.99999 18.2104 22.3485)" fill="#C18010"/>
<path d="M33.532 17.9912L50.5639 15.2936" stroke="#E2A412" stroke-width="3.83203" stroke-linecap="round" stroke-linejoin="round"/>
<path d="M35.4481 25.1748L43.3962 23.9159" stroke="#E2A412" stroke-width="3.83203" stroke-linecap="round" stroke-linejoin="round"/>
</svg>
